<?xml version="1.0" encoding="UTF-8" standalone="no"?>
<!-- Created with Inkscape (http://www.inkscape.org/) -->

<svg
   xmlns:dc="http://purl.org/dc/elements/1.1/"
   xmlns:cc="http://creativecommons.org/ns#"
   xmlns:rdf="http://www.w3.org/1999/02/22-rdf-syntax-ns#"
   xmlns:svg="http://www.w3.org/2000/svg"
   xmlns="http://www.w3.org/2000/svg"
   xmlns:xlink="http://www.w3.org/1999/xlink"
   xmlns:sodipodi="http://sodipodi.sourceforge.net/DTD/sodipodi-0.dtd"
   xmlns:inkscape="http://www.inkscape.org/namespaces/inkscape"
   version="1.1"
   id="svg2"
   width="76"
   height="189"
   viewBox="0 0 76 189"
   sodipodi:docname="!frei.svg"
   inkscape:version="0.92.5 (2060ec1f9f, 2020-04-08)">
  <metadata
     id="metadata8">
    <rdf:RDF>
      <cc:Work
         rdf:about="">
        <dc:format>image/svg+xml</dc:format>
        <dc:type
           rdf:resource="http://purl.org/dc/dcmitype/StillImage" />
        <dc:title></dc:title>
      </cc:Work>
    </rdf:RDF>
  </metadata>
  <defs
     id="defs6" />
  <sodipodi:namedview
     pagecolor="#ffffff"
     bordercolor="#666666"
     borderopacity="1"
     objecttolerance="10"
     gridtolerance="10"
     guidetolerance="10"
     inkscape:pageopacity="0"
     inkscape:pageshadow="2"
     inkscape:window-width="1858"
     inkscape:window-height="1057"
     id="namedview4"
     showgrid="false"
     inkscape:zoom="1.2486772"
     inkscape:cx="38"
     inkscape:cy="94.5"
     inkscape:window-x="-8"
     inkscape:window-y="-8"
     inkscape:window-maximized="1"
     inkscape:current-layer="svg2" />
  <image
     sodipodi:absref="C:\Users\Carsten\Desktop\!frei.png"
     xlink:href="!frei.png"
     y="0"
     x="0"
     id="image10"
     preserveAspectRatio="none"
     height="189"
     width="76" />
  <g
     id="g12">
    <path
       style="fill:#a5cac2"
       d="m 41.222506,187.4433 c -3.291506,-2.30547 -3.101275,-9.24549 0.366388,-13.36657 3.063259,-3.64048 6.501034,-3.9868 9.527985,-0.95985 1.720287,1.72029 2.023006,2.94971 1.615819,6.56226 -0.867101,7.6929 -6.340641,11.38505 -11.510192,7.76416 z m -0.914169,-36.63776 c -1.205414,-0.58251 -2.493934,-1.78955 -2.863378,-2.68232 C 37.075515,147.23045 36.354951,135.925 35.843707,123 34.886389,98.797613 35.434086,81.44304 37.224424,79.25 c 2.761642,-3.382821 7.874511,0.527988 9.703807,7.422395 1.282036,4.831847 4.13294,55.556775 3.352056,59.641715 -0.555218,2.90443 -3.701341,5.73126 -6.252793,5.61821 -0.840122,-0.0372 -2.513742,-0.54428 -3.719157,-1.12678 z M 16.057878,70.569739 c -0.947902,-1.142152 -0.784372,-1.645748 0.811814,-2.5 2.67601,-1.432157 4.654344,-1.348167 5.98407,0.254055 0.802287,0.966696 0.781366,1.641078 -0.07756,2.5 -1.616045,1.616045 -5.281313,1.477442 -6.718328,-0.254055 z m 35.55604,-3.098678 C 49.317709,65.174852 50.714064,63 54.484544,63 c 3.680302,0 5.860954,1.936071 4.92572,4.373252 -0.797993,2.079537 -5.752461,2.141693 -7.796346,0.09781 z M 69.481569,66.970177 C 69.092551,66.340734 69.223154,65.376846 69.771797,64.828203 71.227925,63.372075 75.5,64.245998 75.5,66 c 0,1.81409 -4.998842,2.619908 -6.018431,0.970177 z M 0.18044905,56.75 C 0.58577228,53.896066 5.6571719,52.943029 6.6514029,55.533954 7.4021988,57.490497 5.4945931,58.962809 2.180449,58.984687 0.34361409,58.996813 -0.07260095,58.531758 0.18044905,56.75 Z M 23.175759,57.941374 c -2.989802,-1.198695 -2.496366,-4.078088 0.852321,-4.973624 5.329547,-1.425276 9.432766,2.644878 5.037661,4.997066 -2.271315,1.215571 -2.804915,1.213448 -5.889982,-0.02344 z m 18.928524,0.144238 C 41.336638,57.599543 40.985015,56.481433 41.322898,55.600925 42.108211,53.554431 51,53.277926 51,55.3 c 0,3.193093 -5.521556,4.922117 -8.895717,2.785612 z M 67.380002,47.547887 C 66.484313,45.213758 67.877382,44 71.452028,44 c 3.301512,0 4.659924,1.334452 3.817331,3.75 -0.61691,1.768559 -7.197834,1.599967 -7.889357,-0.202113 z M 49.398773,39.836211 C 48.390111,38.204162 53.568316,34 56.587148,34 c 3.483626,0 4.299454,2.863655 1.468827,5.155758 -2.551434,2.066026 -7.557681,2.459515 -8.657202,0.680453 z M 33.166252,37.937858 c -3.291421,-1.319207 -2.234401,-3.208913 2.679483,-4.790297 3.326274,-1.07046 4.510195,-1.097055 5.678371,-0.127555 4.474497,3.713503 -1.9423,7.489216 -8.357854,4.917852 z M 16.104283,37.085612 C 13.832975,35.647429 15.619702,33 18.861626,33 c 3.515742,0 4.890085,2.527329 2.166877,3.984746 -2.300726,1.231311 -3.112654,1.247942 -4.92422,0.100866 z m 48,-10 C 63.336638,26.599543 62.985015,25.481433 63.322898,24.600925 63.774246,23.424731 65.2804,23 69,23 c 3.7196,0 5.225754,0.424731 5.677102,1.600925 0.805137,2.098153 -1.33579,3.368449 -5.677102,3.368449 -1.925,0 -4.128073,-0.397693 -4.895717,-0.883762 z M 13.171625,22.706795 C 11.908341,21.184631 12.719866,19.710017 15.677558,18.15329 18.406983,16.716707 21,17.639768 21,20.047972 c 0,2.074889 -0.433351,2.421113 -4.135578,3.304104 -1.618945,0.386122 -3.043383,0.137216 -3.692797,-0.645281 z m 33.936574,-1.504623 c -0.823847,-1.539373 -0.557495,-2.370904 1.326319,-4.140655 3.029177,-2.845764 7.925992,-2.537807 8.363739,0.525988 0.361302,2.528755 -1.24866,3.957254 -5.478723,4.861205 -2.545489,0.543964 -3.386279,0.295093 -4.211335,-1.246538 z M 28.440693,20.904039 c -1.044211,-1.689568 1.802233,-3.906924 5.86084,-4.565545 2.929174,-0.47534 3.799297,-0.239309 4.343226,1.178147 0.443361,1.155379 0.03479,2.24451 -1.173409,3.127967 -2.225176,1.627088 -8.081422,1.795325 -9.030657,0.259431 z M 13.25,9.9688379 C 10.648032,8.9229745 10.275612,6.4919515 12.581787,5.6069888 c 2.919603,-1.1203566 7.16156,-0.6211631 8.508021,1.0012237 1.134013,1.3664016 1.048506,1.8174818 -0.568684,3 C 18.365583,11.184382 16.503834,11.276719 13.25,9.9688379 Z M 68.835144,10.327072 C 66.427069,9.6893099 65.680726,6.8907026 67.447539,5.1238896 69.398851,3.1725776 74.31612,4.687414 74.838678,7.4008376 75.384077,10.232866 72.953213,11.417714 68.835144,10.327072 Z M 39.636704,5.7236187 C 37.350453,4.0518711 38.454798,1.174941 41.694937,0.36171801 43.310365,-0.04372866 44.72416,0.29558852 45.767793,1.339222 47.23249,2.8039184 47.212429,3.1077873 45.52817,4.9688722 43.395505,7.3254413 42.061111,7.4963884 39.636704,5.7236187 Z"
       id="path26"
       inkscape:connector-curvature="0" />
    <path
       style="fill:#cbb29b"
       d="m 41.222506,187.4433 c -3.291506,-2.30547 -3.101275,-9.24549 0.366388,-13.36657 3.063259,-3.64048 6.501034,-3.9868 9.527985,-0.95985 1.720287,1.72029 2.023006,2.94971 1.615819,6.56226 -0.867101,7.6929 -6.340641,11.38505 -11.510192,7.76416 z m -0.914169,-36.63776 c -1.205414,-0.58251 -2.493934,-1.78955 -2.863378,-2.68232 C 37.075515,147.23045 36.354951,135.925 35.843707,123 34.886389,98.797613 35.434086,81.44304 37.224424,79.25 c 2.761642,-3.382821 7.874511,0.527988 9.703807,7.422395 1.282036,4.831847 4.13294,55.556775 3.352056,59.641715 -0.555218,2.90443 -3.701341,5.73126 -6.252793,5.61821 -0.840122,-0.0372 -2.513742,-0.54428 -3.719157,-1.12678 z M 16.666667,71.333333 c -1.355455,-1.355454 -0.601776,-3.11704 1.577411,-3.68691 2.503957,-0.654799 5.387764,1.522218 4.315229,3.257616 -0.740756,1.198568 -4.825763,1.496172 -5.89264,0.429294 z m 35.343902,-3.820598 c -3.031528,-3.652768 2.992694,-6.366614 6.45252,-2.906789 1.239925,1.239925 1.342256,1.923673 0.448984,3 -1.521029,1.832728 -5.34599,1.781068 -6.901504,-0.09321 z m 17.43558,-0.599867 c -0.369536,-0.597923 -0.218893,-1.540124 0.334764,-2.093781 1.476706,-1.476706 4.643619,-0.568734 5.030928,1.442397 C 75.058185,67.540646 74.482314,68 72.632341,68 71.249472,68 69.815686,67.51079 69.446149,66.912868 Z M 0.32289793,57.399075 C -0.34521632,55.657997 1.5047813,54.039638 4.190983,54.015313 6.7772527,53.991893 7.5281007,56.140675 5.4616455,57.651704 3.0033989,59.449218 1.0731981,59.354326 0.32289793,57.399075 Z M 42.538354,57.651704 C 39.881912,55.709265 41.502216,54 46,54 c 4.308941,0 5.799052,1.332275 3.963645,3.543805 -1.514435,1.824782 -5.007888,1.875546 -7.425291,0.107899 z M 21.380002,56.547887 C 20.453689,54.133952 21.914969,53 25.952028,53 c 3.752544,0 5.843473,1.903835 4.492199,4.090242 -0.944564,1.528338 -8.441766,1.079745 -9.064225,-0.542355 z m 46.02451,-8.936129 C 66.47335,45.185189 67.859463,44 71.628568,44 c 3.068569,0 3.470303,0.283268 3.190983,2.25 -0.245084,1.725669 -1.07852,2.323143 -3.576426,2.563871 -2.204852,0.212486 -3.444786,-0.175816 -3.838613,-1.202113 z m -17.752021,-8.07497 c -0.793939,-2.068971 4.163203,-5.699134 7.284296,-5.334361 3.709532,0.433546 3.807351,3.361404 0.175059,5.239735 -3.781072,1.955268 -6.731,1.99269 -7.459355,0.09463 z M 33.75,38.310674 C 32.7875,38.059147 32,37.01283 32,35.985525 c 0,-1.39097 1.085026,-2.095367 4.25,-2.759094 4.418381,-0.926578 6.75,-0.111088 6.75,2.36083 0,2.596883 -4.57725,3.944531 -9.25,2.723413 z M 16.055093,36.566383 C 14.417274,34.592931 15.549674,33 18.590402,33 c 2.112151,0 4.421665,2.405016 3.283137,3.4189 -1.499495,1.335333 -4.763945,1.418079 -5.818446,0.147483 z M 65.166252,26.937858 C 61.958449,25.652165 62.955149,23.568314 66.965384,23.176321 71.414962,22.741384 75,23.734668 75,25.402421 c 0,2.350911 -5.612635,3.227265 -9.833748,1.535437 z M 13,21.760365 C 13,19.562125 15.189069,18 18.269551,18 c 2.403846,0 2.81769,0.365157 2.55,2.25 -0.256682,1.807329 -1.057336,2.311062 -4.069551,2.560365 -2.647691,0.219134 -3.75,-0.08951 -3.75,-1.05 z m 35.25,0.577354 c -2.081742,-0.840001 -1.403698,-4.190906 1.192184,-5.891793 3.351085,-2.195716 6.972716,-1.545548 7.380096,1.3249 0.253907,1.789063 -0.428777,2.584638 -3.217881,3.75 -1.947089,0.813546 -3.667115,1.443648 -3.82228,1.400227 C 49.626953,22.877632 48.9375,22.615132 48.25,22.337719 Z m -19.809307,-1.43368 c -1.745706,-2.824612 7.245347,-6.19219 9.447638,-3.538592 0.976265,1.176327 0.773015,1.758347 -1.063165,3.044458 -2.608115,1.826795 -7.386788,2.108423 -8.384473,0.494134 z M 14.074139,10.122737 C 10.858824,9.224222 10.378602,7.4029299 12.988688,6.006054 16.061193,4.3616992 20.411339,5.1230671 20.839842,7.3801727 21.423195,10.452934 18.906464,11.473123 14.074139,10.122737 Z M 67.181771,8.7190205 C 66.310998,7.669803 66.35261,6.9000361 67.354145,5.530355 68.432579,4.0555098 69.207915,3.9026384 71.5872,4.6957333 75.694335,6.0647782 75.581914,9.3944219 71.414825,9.8010654 69.671227,9.9712136 67.830499,9.5006906 67.181771,8.7190205 Z M 38.399908,4.8380478 c -0.406854,-0.6583043 0.265759,-1.9586537 1.551767,-3 2.72307,-2.20500873 3.12065,-2.23686539 5.569449,-0.4462603 1.61719,1.1825182 1.702697,1.6335984 0.568684,3 -1.543875,1.8602555 -6.633461,2.1556144 -7.6899,0.4462603 z"
       id="path24"
       inkscape:connector-curvature="0" />
    <path
       style="fill:#8fc3b7"
       d="m 44,188.20676 c -4.909,-1.53073 -6.355575,-6.68469 -3.452104,-12.29938 2.214387,-4.28215 6.117544,-5.55644 9.397348,-3.06802 2.159426,1.63838 2.528619,2.6645 2.385853,6.63113 C 52.103346,185.79833 48.47572,189.60238 44,188.20676 Z m -5.681753,-39.84381 c -1.524616,-2.32685 -1.777086,-6.4907 -2.146367,-35.39882 -0.416186,-32.57985 -0.406719,-32.76808 1.704805,-33.898134 1.567678,-0.838996 2.668836,-0.844409 4.207973,-0.02069 4.735454,2.534338 6.160303,11.715455 7.483259,48.218924 0.659926,18.20891 0.574873,19.92051 -1.080799,21.75 -2.71179,2.9965 -8.000705,2.65776 -10.168871,-0.65128 z M 16.666667,71.333333 c -1.355455,-1.355454 -0.601776,-3.11704 1.577411,-3.68691 2.503957,-0.654799 5.387764,1.522218 4.315229,3.257616 -0.740756,1.198568 -4.825763,1.496172 -5.89264,0.429294 z m 35.343902,-3.820598 c -3.031528,-3.652768 2.992694,-6.366614 6.45252,-2.906789 1.239925,1.239925 1.342256,1.923673 0.448984,3 -1.521029,1.832728 -5.34599,1.781068 -6.901504,-0.09321 z m 17.43558,-0.599867 c -0.369536,-0.597923 -0.218893,-1.540124 0.334764,-2.093781 1.476706,-1.476706 4.643619,-0.568734 5.030928,1.442397 C 75.058185,67.540646 74.482314,68 72.632341,68 71.249472,68 69.815686,67.51079 69.446149,66.912868 Z M 0.32289793,57.399075 C -0.34521632,55.657997 1.5047813,54.039638 4.190983,54.015313 6.7772527,53.991893 7.5281007,56.140675 5.4616455,57.651704 3.0033989,59.449218 1.0731981,59.354326 0.32289793,57.399075 Z M 42.538354,57.651704 C 39.881912,55.709265 41.502216,54 46,54 c 4.308941,0 5.799052,1.332275 3.963645,3.543805 -1.514435,1.824782 -5.007888,1.875546 -7.425291,0.107899 z M 21.380002,56.547887 C 20.453689,54.133952 21.914969,53 25.952028,53 c 3.752544,0 5.843473,1.903835 4.492199,4.090242 -0.944564,1.528338 -8.441766,1.079745 -9.064225,-0.542355 z m 46.02451,-8.936129 C 66.47335,45.185189 67.859463,44 71.628568,44 c 3.068569,0 3.470303,0.283268 3.190983,2.25 -0.245084,1.725669 -1.07852,2.323143 -3.576426,2.563871 -2.204852,0.212486 -3.444786,-0.175816 -3.838613,-1.202113 z m -17.752021,-8.07497 c -0.793939,-2.068971 4.163203,-5.699134 7.284296,-5.334361 3.709532,0.433546 3.807351,3.361404 0.175059,5.239735 -3.781072,1.955268 -6.731,1.99269 -7.459355,0.09463 z M 33.75,38.310674 C 32.7875,38.059147 32,37.01283 32,35.985525 c 0,-1.39097 1.085026,-2.095367 4.25,-2.759094 4.418381,-0.926578 6.75,-0.111088 6.75,2.36083 0,2.596883 -4.57725,3.944531 -9.25,2.723413 z M 16.055093,36.566383 C 14.417274,34.592931 15.549674,33 18.590402,33 c 2.112151,0 4.421665,2.405016 3.283137,3.4189 -1.499495,1.335333 -4.763945,1.418079 -5.818446,0.147483 z M 65.166252,26.937858 C 61.958449,25.652165 62.955149,23.568314 66.965384,23.176321 71.414962,22.741384 75,23.734668 75,25.402421 c 0,2.350911 -5.612635,3.227265 -9.833748,1.535437 z M 13,21.760365 C 13,19.562125 15.189069,18 18.269551,18 c 2.403846,0 2.81769,0.365157 2.55,2.25 -0.256682,1.807329 -1.057336,2.311062 -4.069551,2.560365 -2.647691,0.219134 -3.75,-0.08951 -3.75,-1.05 z m 35.25,0.577354 c -2.081742,-0.840001 -1.403698,-4.190906 1.192184,-5.891793 3.351085,-2.195716 6.972716,-1.545548 7.380096,1.3249 0.253907,1.789063 -0.428777,2.584638 -3.217881,3.75 -1.947089,0.813546 -3.667115,1.443648 -3.82228,1.400227 C 49.626953,22.877632 48.9375,22.615132 48.25,22.337719 Z m -19.809307,-1.43368 c -1.745706,-2.824612 7.245347,-6.19219 9.447638,-3.538592 0.976265,1.176327 0.773015,1.758347 -1.063165,3.044458 -2.608115,1.826795 -7.386788,2.108423 -8.384473,0.494134 z M 14.074139,10.122737 C 10.858824,9.224222 10.378602,7.4029299 12.988688,6.006054 16.061193,4.3616992 20.411339,5.1230671 20.839842,7.3801727 21.423195,10.452934 18.906464,11.473123 14.074139,10.122737 Z M 67.181771,8.7190205 C 66.310998,7.669803 66.35261,6.9000361 67.354145,5.530355 68.432579,4.0555098 69.207915,3.9026384 71.5872,4.6957333 75.694335,6.0647782 75.581914,9.3944219 71.414825,9.8010654 69.671227,9.9712136 67.830499,9.5006906 67.181771,8.7190205 Z M 38.399908,4.8380478 c -0.406854,-0.6583043 0.265759,-1.9586537 1.551767,-3 2.72307,-2.20500873 3.12065,-2.23686539 5.569449,-0.4462603 1.61719,1.1825182 1.702697,1.6335984 0.568684,3 -1.543875,1.8602555 -6.633461,2.1556144 -7.6899,0.4462603 z"
       id="path22"
       inkscape:connector-curvature="0" />
    <path
       style="fill:#66b8a6"
       d="m 44,188.20676 c -4.909,-1.53073 -6.355575,-6.68469 -3.452104,-12.29938 2.214387,-4.28215 6.117544,-5.55644 9.397348,-3.06802 2.159426,1.63838 2.528619,2.6645 2.385853,6.63113 C 52.103346,185.79833 48.47572,189.60238 44,188.20676 Z m -5.681753,-39.84381 c -1.524616,-2.32685 -1.777086,-6.4907 -2.146367,-35.39882 -0.416186,-32.57985 -0.406719,-32.76808 1.704805,-33.898134 1.567678,-0.838996 2.668836,-0.844409 4.207973,-0.02069 4.735454,2.534338 6.160303,11.715455 7.483259,48.218924 0.659926,18.20891 0.574873,19.92051 -1.080799,21.75 -2.71179,2.9965 -8.000705,2.65776 -10.168871,-0.65128 z M 17.25,71.356218 C 16.5625,71.068632 16,70.167322 16,69.353308 16,68.285924 16.906122,67.96065 19.25,68.186642 21.332952,68.387476 22.5,69.038638 22.5,70 c 0,1.528893 -2.990448,2.301408 -5.25,1.356218 z m 34.992976,-3.513242 c -2.943561,-2.943561 -0.8109,-5.34626 3.838907,-4.324991 2.381623,0.523092 2.967042,1.129667 2.725601,2.824096 -0.357504,2.50896 -4.588969,3.476434 -6.564508,1.500895 z M 70,66 c 0,-2.109076 1.575951,-2.554657 3.878115,-1.096491 C 75.665661,66.035722 74.43683,68 71.940983,68 70.666667,68 70,67.313063 70,66 Z M 1.0643021,58.060903 C -0.12553821,57.308003 -0.14738154,56.88251 0.93674683,55.576215 2.4416241,53.762949 3.8712889,53.609938 6,55.034316 c 1.2983297,0.868747 1.2390211,1.202806 -0.4411296,2.484687 -2.2550732,1.720522 -2.5716243,1.758688 -4.4945683,0.5419 z M 43.75,58.310674 C 42.7875,58.059147 42,56.986348 42,55.926676 42,54.350363 42.716661,54 45.940983,54 c 4.550013,0 6.189326,1.70033 3.520663,3.651704 -1.882188,1.376289 -2.634572,1.463094 -5.711646,0.65897 z M 21.322898,56.399075 C 20.51418,54.291591 22.768983,52.915481 26.5,53.239481 28.751001,53.434957 29.579781,54.061749 29.819551,55.75 30.106367,57.769511 29.719004,58 26.038166,58 23.200479,58 21.747992,57.506853 21.322898,56.399075 Z m 46.781385,-8.2891 c -2.54356,-1.65497 -0.451787,-4.269882 3.138842,-3.923846 C 73.72871,44.425669 74.5,44.973638 74.5,46.5 c 0,2.217108 -3.938756,3.2086 -6.395717,1.609975 z M 50,39.02568 c 0,-3.09638 7.936628,-6.55527 9.444227,-4.115922 0.946379,1.531273 -0.423832,3.759919 -3.046292,4.954792 C 52.53091,41.626485 50,41.294643 50,39.02568 Z M 35.005251,38.010551 c -1.372112,-0.329033 -2.63652,-1.334403 -2.809797,-2.234156 -0.241006,-1.251446 0.774253,-1.799266 4.319931,-2.330973 4.899686,-0.734753 7.174994,0.313096 6.199543,2.85508 -0.662789,1.727201 -4.286429,2.530944 -7.709677,1.710049 z M 15.446149,35.912868 c -0.369536,-0.597923 -0.222995,-1.536022 0.325648,-2.084665 1.524764,-1.524764 5.665447,-0.550272 6.041311,1.421797 0.257949,1.353392 -0.349602,1.75 -2.680767,1.75 -1.657869,0 -3.316655,-0.48921 -3.686192,-1.087132 z m 48.08486,-9.862695 c -0.322864,-0.522404 0.295995,-1.422404 1.375241,-2 3.896042,-2.085098 11.225788,-0.690867 9.662848,1.838024 -0.836568,1.353595 -10.216559,1.49124 -11.038089,0.161976 z M 13,21.535184 C 13,19.920676 15.9695,18 18.465643,18 c 2.140589,0 3.182306,2.976106 1.430074,4.085612 C 17.594199,23.542924 13,23.176207 13,21.535184 Z M 29,20.106989 C 29,17.951493 30.862504,17 35.081787,17 c 3.398759,0 3.984225,2.35912 0.983954,3.964816 C 32.787753,22.719143 29,22.259285 29,20.106989 Z m 18.666667,1.226344 c -2.477711,-2.47771 2.689722,-6.962669 6.826048,-5.924517 3.39406,0.851854 3.358386,4.317098 -0.05781,5.615935 -2.977083,1.131885 -5.815519,1.261297 -6.768233,0.308582 z M 11.406242,8.8482961 C 10.336154,7.116858 14.092027,4.8719046 17.5,5.2059466 19.738109,5.4253211 20.581154,6.0714183 20.819551,7.75 21.110415,9.7980088 20.734174,10 16.628568,10 14.147774,10 11.797728,9.4817332 11.406242,8.8482961 Z M 67.71406,9.3807266 C 67.321327,8.9879936 67,7.8145023 67,6.7729681 67,5.1961848 67.627572,4.9312099 70.75,5.1896347 73.729878,5.4362616 74.5,5.9107316 74.5,7.5 c 0,1.4955119 -0.765798,2.0750157 -3.03594,2.2973933 -1.669767,0.1635663 -3.357267,-0.023934 -3.75,-0.4166667 z M 38.507759,5.0125541 C 37.406592,3.2308292 40.010852,1 43.191996,1 45.676269,1 46.088918,1.3533547 45.819551,3.25 45.576969,4.9580509 44.73979,5.5737915 42.343849,5.806359 40.607966,5.9748564 38.881725,5.6176442 38.507759,5.0125541 Z"
       id="path20"
       inkscape:connector-curvature="0" />
    <path
       style="fill:#d08b69"
       d="m 44,188.20676 c -4.909,-1.53073 -6.355575,-6.68469 -3.452104,-12.29938 2.214387,-4.28215 6.117544,-5.55644 9.397348,-3.06802 2.159426,1.63838 2.528619,2.6645 2.385853,6.63113 C 52.103346,185.79833 48.47572,189.60238 44,188.20676 Z m -5.681753,-39.84381 c -1.524616,-2.32685 -1.777086,-6.4907 -2.146367,-35.39882 -0.416186,-32.57985 -0.406719,-32.76808 1.704805,-33.898134 1.567678,-0.838996 2.668836,-0.844409 4.207973,-0.02069 4.735454,2.534338 6.160303,11.715455 7.483259,48.218924 0.659926,18.20891 0.574873,19.92051 -1.080799,21.75 -2.71179,2.9965 -8.000705,2.65776 -10.168871,-0.65128 z M 16.25,69.75 c 0.229167,-0.6875 1.691667,-1.25 3.25,-1.25 1.558333,0 3.020833,0.5625 3.25,1.25 0.282828,0.848485 -0.761111,1.25 -3.25,1.25 -2.488889,0 -3.532828,-0.401515 -3.25,-1.25 z m 36.5,-1.830099 c -2.012507,-1.172177 -2.321712,-3.562664 -0.537742,-4.15732 3.875023,-1.291675 8.724827,2.39725 5.683459,4.323031 C 56.103514,69.220428 54.917282,69.182227 52.75,67.919901 Z M 70.212928,66.25 c 0.228432,-1.111746 1.075787,-1.624147 2.323324,-1.404931 2.738376,0.481187 3.149371,1.109655 1.434788,2.193991 -2.352773,1.487939 -4.148502,1.110905 -3.758112,-0.78906 z M 0.60055958,56.598542 C 1.174434,55.103049 4.5126774,53.846011 5.4420954,54.775429 6.9942515,56.327585 5.743943,58 3.0313848,58 0.89622923,58 0.21375792,57.606531 0.60055958,56.598542 Z M 22.75,57.331563 C 20.414751,56.693424 20.538283,55.317471 23.051585,53.972393 26.122952,52.328647 29.5,53.128658 29.5,55.5 c 0,2.054389 -2.977756,2.862381 -6.75,1.831563 z M 42,56.616631 c 0,-0.760852 1.0125,-1.654708 2.25,-1.986345 C 48.37013,53.526134 50,53.914387 50,56 c 0,1.666667 -0.666667,2 -4,2 -2.739005,0 -4,-0.436105 -4,-1.383369 z M 69.25,48.337439 C 68.5625,48.060181 68,47.204407 68,46.435719 68,44.875764 72.300501,43.449652 73.943165,44.464874 75.240561,45.266709 75.347741,48 74.081787,48 c -0.505016,0 -1.517516,0.189347 -2.25,0.420772 C 71.099304,48.652197 69.9375,48.614697 69.25,48.337439 Z M 50.677665,40.344332 c -1.514263,-1.514264 -0.485109,-3.207823 2.935841,-4.83117 3.214173,-1.525225 3.779498,-1.54873 5.115533,-0.212694 1.336035,1.336035 1.240608,1.6672 -0.863506,2.996654 -3.119663,1.971114 -6.345265,2.889813 -7.187868,2.04721 z M 33.008359,37.052633 c -2.169467,-1.409841 -0.29376,-2.82478 4.829787,-3.64335 4.159129,-0.664489 4.324193,-0.594386 4,1.698814 C 41.563937,37.047739 40.838221,37.549348 38,37.760992 36.075,37.904538 33.828762,37.585776 33.008359,37.052633 Z m -16.8202,-1.791149 c 0.384649,-1.997319 2.67659,-2.66782 4.689956,-1.372034 C 22.835542,35.149233 21.341829,37 18.367659,37 c -1.849973,0 -2.425844,-0.459354 -2.1795,-1.738516 z M 64,25.5 c 0,-1.299512 0.952957,-1.547062 5.013123,-1.30226 6.681976,0.402881 6.847597,2.223919 0.236877,2.60452 C 64.972419,27.048534 64,26.807326 64,25.5 Z M 13.186391,21.270665 c 0.477105,-2.477407 5.639968,-4.160549 6.853831,-2.234413 C 21.198046,20.873467 18.620359,23 15.235546,23 13.515912,23 12.94598,22.519019 13.186391,21.270665 Z M 29.345077,20.456872 C 28.53978,18.358304 29.169996,17.921014 33.917413,17.284252 37.157752,16.849631 38,17.053098 38,18.270506 c 0,0.843614 -1.41715,2.027865 -3.149223,2.631669 -4.141457,1.443719 -4.801294,1.390351 -5.5057,-0.445303 z m 18.003004,0.0078 C 46.433446,18.081201 49.682795,15.831793 53.5,16.205947 c 2.377773,0.233064 2.92843,0.708871 2.654931,2.294053 -0.430244,2.493668 -0.0026,2.199789 -4.39437,3.020125 -3.046569,0.569072 -3.864144,0.373516 -4.41248,-1.055423 z M 13.25,9.36096 C 10.959625,8.3941896 11.961429,6.2577142 14.989062,5.6521876 18.804048,4.8891904 21.183422,5.8011201 20.790903,7.8758272 20.482102,9.5080281 15.788402,10.432423 13.25,9.36096 Z M 67.666667,9.3333333 C 67.3,8.9666667 67,7.8416667 67,6.8333333 67,5.4920635 67.751515,5 69.8,5 c 3.238501,0 5.277138,1.6354077 4.514866,3.621855 -0.538049,1.402134 -5.433628,1.92605 -6.648199,0.7114783 z M 39.380002,4.5478871 C 38.551013,2.3875743 39.806596,1 42.590402,1 c 2.830175,0 4.390493,2.7652857 2.305315,4.085612 -2.133229,1.3507519 -4.894332,1.081573 -5.515715,-0.5377249 z"
       id="path18"
       inkscape:connector-curvature="0" />
    <path
       style="fill:#31af98"
       d="m 40.895833,185.89583 c -1.587164,-1.58716 -1.95572,-2.84639 -1.5,-5.125 C 39.728125,179.10937 40,177.4411 40,177.06356 40,175.20237 44.374241,172 46.91651,172 c 4.155724,0 5.420955,2.13614 4.840885,8.17304 -0.729499,7.59204 -6.14105,10.44331 -10.861562,5.72279 z m -1.397517,-36.2734 c -1.667405,-1.21924 -1.973834,-3.43182 -2.666008,-19.25 C 35.971082,110.69094 35.903597,84.766682 36.704434,81.25 c 0.609532,-2.676611 4.334057,-3.068652 6.697711,-0.704998 3.168898,3.168898 4.129637,11.414643 6.129505,52.607758 0.630842,12.99405 0.561635,13.75396 -1.434414,15.75 -2.415294,2.4153 -5.883096,2.70553 -8.59892,0.71967 z M 16.25,69.75 c 0.229167,-0.6875 1.691667,-1.25 3.25,-1.25 1.558333,0 3.020833,0.5625 3.25,1.25 0.282828,0.848485 -0.761111,1.25 -3.25,1.25 -2.488889,0 -3.532828,-0.401515 -3.25,-1.25 z m 36.5,-1.830099 c -2.012507,-1.172177 -2.321712,-3.562664 -0.537742,-4.15732 3.875023,-1.291675 8.724827,2.39725 5.683459,4.323031 C 56.103514,69.220428 54.917282,69.182227 52.75,67.919901 Z M 70.212928,66.25 c 0.228432,-1.111746 1.075787,-1.624147 2.323324,-1.404931 2.738376,0.481187 3.149371,1.109655 1.434788,2.193991 -2.352773,1.487939 -4.148502,1.110905 -3.758112,-0.78906 z M 0.60055958,56.598542 C 1.174434,55.103049 4.5126774,53.846011 5.4420954,54.775429 6.9942515,56.327585 5.743943,58 3.0313848,58 0.89622923,58 0.21375792,57.606531 0.60055958,56.598542 Z M 22.75,57.331563 C 20.414751,56.693424 20.538283,55.317471 23.051585,53.972393 26.122952,52.328647 29.5,53.128658 29.5,55.5 c 0,2.054389 -2.977756,2.862381 -6.75,1.831563 z M 42,56.616631 c 0,-0.760852 1.0125,-1.654708 2.25,-1.986345 C 48.37013,53.526134 50,53.914387 50,56 c 0,1.666667 -0.666667,2 -4,2 -2.739005,0 -4,-0.436105 -4,-1.383369 z M 69.25,48.337439 C 68.5625,48.060181 68,47.204407 68,46.435719 68,44.875764 72.300501,43.449652 73.943165,44.464874 75.240561,45.266709 75.347741,48 74.081787,48 c -0.505016,0 -1.517516,0.189347 -2.25,0.420772 C 71.099304,48.652197 69.9375,48.614697 69.25,48.337439 Z M 50.677665,40.344332 c -1.514263,-1.514264 -0.485109,-3.207823 2.935841,-4.83117 3.214173,-1.525225 3.779498,-1.54873 5.115533,-0.212694 1.336035,1.336035 1.240608,1.6672 -0.863506,2.996654 -3.119663,1.971114 -6.345265,2.889813 -7.187868,2.04721 z M 33.008359,37.052633 c -2.169467,-1.409841 -0.29376,-2.82478 4.829787,-3.64335 4.159129,-0.664489 4.324193,-0.594386 4,1.698814 C 41.563937,37.047739 40.838221,37.549348 38,37.760992 36.075,37.904538 33.828762,37.585776 33.008359,37.052633 Z m -16.8202,-1.791149 c 0.384649,-1.997319 2.67659,-2.66782 4.689956,-1.372034 C 22.835542,35.149233 21.341829,37 18.367659,37 c -1.849973,0 -2.425844,-0.459354 -2.1795,-1.738516 z M 64,25.5 c 0,-1.299512 0.952957,-1.547062 5.013123,-1.30226 6.681976,0.402881 6.847597,2.223919 0.236877,2.60452 C 64.972419,27.048534 64,26.807326 64,25.5 Z M 13.186391,21.270665 c 0.477105,-2.477407 5.639968,-4.160549 6.853831,-2.234413 C 21.198046,20.873467 18.620359,23 15.235546,23 13.515912,23 12.94598,22.519019 13.186391,21.270665 Z M 29.345077,20.456872 C 28.53978,18.358304 29.169996,17.921014 33.917413,17.284252 37.157752,16.849631 38,17.053098 38,18.270506 c 0,0.843614 -1.41715,2.027865 -3.149223,2.631669 -4.141457,1.443719 -4.801294,1.390351 -5.5057,-0.445303 z m 18.003004,0.0078 C 46.433446,18.081201 49.682795,15.831793 53.5,16.205947 c 2.377773,0.233064 2.92843,0.708871 2.654931,2.294053 -0.430244,2.493668 -0.0026,2.199789 -4.39437,3.020125 -3.046569,0.569072 -3.864144,0.373516 -4.41248,-1.055423 z M 13.25,9.36096 C 10.959625,8.3941896 11.961429,6.2577142 14.989062,5.6521876 18.804048,4.8891904 21.183422,5.8011201 20.790903,7.8758272 20.482102,9.5080281 15.788402,10.432423 13.25,9.36096 Z M 67.666667,9.3333333 C 67.3,8.9666667 67,7.8416667 67,6.8333333 67,5.4920635 67.751515,5 69.8,5 c 3.238501,0 5.277138,1.6354077 4.514866,3.621855 -0.538049,1.402134 -5.433628,1.92605 -6.648199,0.7114783 z M 39.380002,4.5478871 C 38.551013,2.3875743 39.806596,1 42.590402,1 c 2.830175,0 4.390493,2.7652857 2.305315,4.085612 -2.133229,1.3507519 -4.894332,1.081573 -5.515715,-0.5377249 z"
       id="path16"
       inkscape:connector-curvature="0" />
    <path
       style="fill:#d22b16"
       d="m 40.895833,185.89583 c -1.587164,-1.58716 -1.95572,-2.84639 -1.5,-5.125 C 39.728125,179.10937 40,177.4411 40,177.06356 40,175.20237 44.374241,172 46.91651,172 c 4.155724,0 5.420955,2.13614 4.840885,8.17304 -0.729499,7.59204 -6.14105,10.44331 -10.861562,5.72279 z m -1.397517,-36.2734 c -1.667405,-1.21924 -1.973834,-3.43182 -2.666008,-19.25 C 35.971082,110.69094 35.903597,84.766682 36.704434,81.25 c 0.609532,-2.676611 4.334057,-3.068652 6.697711,-0.704998 3.168898,3.168898 4.129637,11.414643 6.129505,52.607758 0.630842,12.99405 0.561635,13.75396 -1.434414,15.75 -2.415294,2.4153 -5.883096,2.70553 -8.59892,0.71967 z"
       id="path14"
       inkscape:connector-curvature="0" />
  </g>
</svg>
