<?xml version="1.0" encoding="UTF-8" standalone="no"?>
<!-- Created with Inkscape (http://www.inkscape.org/) -->

<svg
   xmlns:dc="http://purl.org/dc/elements/1.1/"
   xmlns:cc="http://creativecommons.org/ns#"
   xmlns:rdf="http://www.w3.org/1999/02/22-rdf-syntax-ns#"
   xmlns:svg="http://www.w3.org/2000/svg"
   xmlns="http://www.w3.org/2000/svg"
   xmlns:sodipodi="http://sodipodi.sourceforge.net/DTD/sodipodi-0.dtd"
   xmlns:inkscape="http://www.inkscape.org/namespaces/inkscape"
   width="10.950939mm"
   height="19.925554mm"
   viewBox="0 0 10.950939 19.925554"
   version="1.1"
   id="svg2207"
   inkscape:version="0.92.5 (2060ec1f9f, 2020-04-08)"
   sodipodi:docname="bass.svg">
  <defs
     id="defs2201" />
  <sodipodi:namedview
     id="base"
     pagecolor="#ffffff"
     bordercolor="#666666"
     borderopacity="1.0"
     inkscape:pageopacity="0.0"
     inkscape:pageshadow="2"
     inkscape:zoom="1.979899"
     inkscape:cx="70.817089"
     inkscape:cy="21.947562"
     inkscape:document-units="mm"
     inkscape:current-layer="layer1"
     showgrid="false"
     inkscape:window-width="800"
     inkscape:window-height="585"
     inkscape:window-x="816"
     inkscape:window-y="81"
     inkscape:window-maximized="0" />
  <metadata
     id="metadata2204">
    <rdf:RDF>
      <cc:Work
         rdf:about="">
        <dc:format>image/svg+xml</dc:format>
        <dc:type
           rdf:resource="http://purl.org/dc/dcmitype/StillImage" />
        <dc:title></dc:title>
      </cc:Work>
    </rdf:RDF>
  </metadata>
  <g
     inkscape:label="Ebene 1"
     inkscape:groupmode="layer"
     id="layer1"
     transform="translate(-48.19715,-115.43603)">
    <g
       transform="matrix(0.26458333,0,0,0.26458333,39.095493,44.847576)"
       data-name="Layer 4"
       id="g6413">
      <g
         id="g6411">
        <path
           style="fill:#d42b00"
           inkscape:connector-curvature="0"
           id="path6341"
           d="m 60.7,295.2 c 1.2,0.5 5.1,-1.9 5.6,-2.3 0.5,-0.4 -0.8,-4.2 -3.1,-6.4 l -2.9,-3 c 0,-0.1 -0.2,-3.1 0.4,-3.1 a 17,17 0 0 1 5.1,3.1 c 1,1.1 4.6,5.7 5.2,8.8 0.6,3.1 -3.6,7.9 -4.1,8.3 -0.5,0.4 -6.2,-5.4 -6.2,-5.4 z"
           class="cls-6" />
        <path
           style="fill:#d42b00"
           inkscape:connector-curvature="0"
           id="path6343"
           d="m 50.9,289.6 a 11.7,11.7 0 0 1 0.7,5 c -0.2,1 -5.8,2 -5.9,3.1 -0.1,1.1 -0.8,7.1 -0.3,9.6 0.5,2.5 8.6,4.7 9.5,5.2 0.9,0.5 3.1,0.8 3.3,0.3 0.2,-0.5 0.6,-1.8 0.7,-2.1 0.1,-0.3 -7.6,-3.3 -8.4,-3.9 -0.8,-0.6 -1.5,-5.6 -1.1,-5.8 0.4,-0.2 4.7,5.9 4.7,5.9 l 7.1,-1.7 v -10.4 c 0,0 -5.1,-0.3 -5.4,-1.4 -0.3,-1.1 -1.9,-4.7 -1.9,-4.7 z"
           class="cls-6" />
        <path
           style="fill:#3eaf99"
           inkscape:connector-curvature="0"
           id="path6345"
           d="m 49.8,324.4 c 0.4,-0.9 -0.7,-2.3 -1.7,-1.6 -1,0.7 -2.5,2.6 -4.1,3 a 6.4,6.4 0 0 1 -2.4,-0.1 17.6,17.6 0 0 1 -2,-0.9 h -4.4 a 0.7,0.7 0 0 0 -0.8,0.7 c 0,1.2 0.1,2.5 0.1,3.7 a 10.2,10.2 0 0 0 0.4,3.5 0.8,0.8 0 0 0 1.4,-0.5 12.8,12.8 0 0 1 0.9,-2.2 2.5,2.5 0 0 1 1.7,-1.1 1.9,1.9 0 0 0 0.8,0.7 9,9 0 0 0 4.3,0.4 7.4,7.4 0 0 0 3.3,-1.3 c 1.1,-0.7 2.9,-1.8 2.9,-3.3 a 1.3,1.3 0 0 0 -0.4,-1 z"
           class="cls-7" />
        <path
           style="fill:#3eaf99"
           inkscape:connector-curvature="0"
           id="path6347"
           d="m 75.6,338.6 c -1.3,-0.7 -2.8,-0.7 -4.1,-1.2 L 70,336.9 v -0.2 a 36.8,36.8 0 0 0 -1.1,-3.7 1,1 0 0 0 -1.3,-0.5 0.9,0.9 0 0 0 -0.9,0.1 1,1 0 0 0 -1.3,0.2 l -0.2,-0.2 c -0.4,-0.7 -1.3,-0.2 -1.2,0.5 a 0.8,0.8 0 0 0 0.1,0.4 l -0.3,0.2 c -0.5,0.9 0.3,2.3 0.8,3 l 0.4,0.5 v 0.3 c 0.5,1.3 1.1,2.5 1.6,3.8 a 1,1 0 0 0 1,0.8 9.5,9.5 0 0 0 4,-1 l 1.9,-0.6 a 9.3,9.3 0 0 0 1.7,-1 l 0.4,-0.2 c 0.2,-0.2 0.3,-0.5 0,-0.7 z"
           class="cls-7" />
        <path
           style="fill:#330800"
           inkscape:connector-curvature="0"
           id="path6349"
           d="m 74.9,314.2 c 0,-0.3 -0.6,-2.4 -0.6,-2.4 0,0 -0.3,-1.1 -1.1,-1.1 a 19.1,19.1 0 0 1 -2.4,0 2.6,2.6 0 0 1 -1.7,-1 1.1,1.1 0 0 1 0.1,-0.5 1.3,1.3 0 0 1 0.8,-0.8 c 1.2,-0.6 2,-0.2 2.1,-1 a 9.1,9.1 0 0 1 -0.1,-1.7 6.8,6.8 0 0 0 -0.2,-2 c -0.2,-0.6 -0.3,-1.2 -0.5,-1.8 a 21.7,21.7 0 0 0 -1.5,-3.5 16.8,16.8 0 0 0 -5.1,-5.5 9.3,9.3 0 0 0 -3.1,-1.3 c 0,-0.4 -0.1,-0.7 -0.1,-1 -0.4,-2.4 -0.7,-4.3 -0.9,-6.7 l -0.3,-3.8 a 11.6,11.6 0 0 0 -0.6,-3.8 h 0.5 a 1.8,1.8 0 0 0 1.7,-1.8 1.8,1.8 0 0 0 -0.5,-1.2 l 0.3,-0.3 a 1.6,1.6 0 0 0 0,-1.5 2.5,2.5 0 0 0 -1,-0.8 V 270 c 0,-0.7 0.1,-1.4 0.1,-2.2 0,-0.8 -2.4,-1.4 -3.4,-0.7 a 1.2,1.2 0 0 0 -0.3,1.7 l 0.3,0.4 a 3.4,3.4 0 0 0 -0.2,1.4 1.1,1.1 0 0 0 0.1,0.5 c -0.9,0.2 -1.9,0.6 -1.7,1.5 0.2,0.9 0.6,0.8 1.2,1 l -1,0.7 c -0.6,0.5 -0.3,1.3 0.4,1.6 0.7,0.3 0.6,0.4 1.1,0.4 a 18.4,18.4 0 0 0 -0.3,4.2 c 0,1.2 0.1,2.8 0.1,3.9 a 36.8,36.8 0 0 0 0.6,5.9 c 0,0.3 0.1,0.5 0.1,0.7 v 0.8 a 4.8,4.8 0 0 0 -1.8,0.7 10.8,10.8 0 0 0 -3.4,2.1 11,11 0 0 0 -2.6,3.4 c -0.8,1.4 -1.5,2.9 -2.2,4.4 a 8.8,8.8 0 0 0 -0.7,2.3 c 0,0.5 0.1,1.6 0.5,1.8 a 8.7,8.7 0 0 0 2.7,0.7 c 1.7,0.5 1.9,1.2 1.6,2.1 -0.3,0.9 -1.2,1.1 -1.9,1.4 -0.7,0.3 -3.5,0.9 -3.7,1.1 a 8.4,8.4 0 0 0 -0.6,1.4 39.3,39.3 0 0 0 0,6 17.2,17.2 0 0 0 1,6 c 1.6,3.9 3.2,7 6.6,9.6 3.4,2.6 8.7,2.5 12.3,0.5 a 16.8,16.8 0 0 0 7.3,-7.6 20.4,20.4 0 0 0 1.6,-6.9 36.5,36.5 0 0 0 0.4,-6.6 z"
           class="cls-4" />
        <path
           style="fill:#ffdc9c"
           inkscape:connector-curvature="0"
           id="path6351"
           d="m 54.2,287 a 6.9,6.9 0 0 0 -2.1,-3 3.4,3.4 0 0 0 -1.9,-0.9 1.6,1.6 0 0 0 -1.7,1.3 v 0 c -1.2,-0.6 -1,1.6 -1,2.1 a 5.2,5.2 0 0 0 1.8,3.2 3.7,3.7 0 0 0 3.6,0.9 c 1.4,-0.6 1.7,-2.2 1.3,-3.6 z"
           class="cls-5" />
        <path
           style="fill:#330800"
           inkscape:connector-curvature="0"
           id="path6353"
           d="m 52.7,280.5 a 2.8,2.8 0 0 0 -1.3,0.3 3.3,3.3 0 0 0 -2,-2.3 3.7,3.7 0 0 0 -3.7,0.4 c -1.9,1.6 -1.6,2.1 -1.7,3.3 a 2.5,2.5 0 0 0 0.5,1.9 c 0.1,0.2 0.4,0.3 0.6,0.5 0.2,0.2 -1,0.5 -1.2,0.7 -0.2,0.2 -1.6,2.7 0,3.3 1.6,0.6 2.2,-0.6 3.1,-1 l 2.6,-1.4 2.4,-1.7 a 5,5 0 0 0 2,-2.3 1.3,1.3 0 0 0 -1.3,-1.7 z"
           class="cls-4" />
        <path
           style="fill:#ffdc9c"
           inkscape:connector-curvature="0"
           id="path6355"
           d="m 58.7,310.2 c 0.1,0 2.3,-1.1 2.6,-0.8 0.3,0.3 -0.7,1.3 -0.8,2 -0.1,0.7 1.2,-0.2 1.5,-0.9 0.3,-0.7 -0.2,-1.7 0.6,-1.6 0.8,0.1 0.8,1.6 0.3,3 a 2.9,2.9 0 0 1 -3.9,1.7 c -1.6,-0.8 -0.3,-3.4 -0.3,-3.4 z"
           class="cls-5" />
        <path
           style="fill:#d42b00"
           inkscape:connector-curvature="0"
           id="path6357"
           d="m 48.8,306.9 c 0.5,0.3 10.6,2.1 10.9,3.5 0.3,1.4 0.2,3.3 -0.9,3.8 -1.1,0.5 -11.3,-4.8 -12.2,-5.3 -0.9,-0.5 1.4,-2.3 2.2,-2 z"
           class="cls-6" />
        <path
           style="fill:#ffdc9c"
           inkscape:connector-curvature="0"
           id="path6359"
           d="m 61.2,281 c -0.3,-0.3 -2.9,-2 -3.5,-1.6 -0.6,0.4 -2.5,0.6 -2.3,1 0.2,0.4 2.4,-0.6 2.5,0 0.1,0.6 -2.2,0.3 -2.2,0.9 0,0.6 2,0.1 2.2,0.4 0.2,0.3 -2.1,-0.1 -2.1,0.8 0,0.9 2.2,-0.1 2.5,0.2 0.3,0.3 -2,0.2 -1.9,0.8 0.1,0.6 3.2,-0.4 4.1,-0.4 0.9,0 1.1,-1.5 0.7,-2.1 z"
           class="cls-5" />
        <path
           style="fill:#330800"
           inkscape:connector-curvature="0"
           id="path6361"
           d="m 75.6,339.3 c 0.2,-0.2 0.3,-0.5 0,-0.7 -0.3,-0.2 -2.8,-0.7 -4.1,-1.2 l -1.3,-0.5 -4.6,2 1,2.4 a 1,1 0 0 0 1,0.8 9.5,9.5 0 0 0 4,-1 l 1.9,-0.6 a 9.3,9.3 0 0 0 1.7,-1 z"
           class="cls-4" />
        <path
           style="fill:#330800"
           inkscape:connector-curvature="0"
           id="path6363"
           d="m 35.2,324.7 a 0.7,0.7 0 0 0 -0.8,0.7 c 0,1.2 0.1,2.5 0.1,3.7 a 10.2,10.2 0 0 0 0.4,3.5 0.8,0.8 0 0 0 1.4,-0.5 12.8,12.8 0 0 1 0.9,-2.2 2.3,2.3 0 0 1 0.7,-0.7 c 0,-1.6 -0.1,-2.9 -0.1,-3.3 a 3.5,3.5 0 0 0 -0.3,-1.2 z"
           class="cls-4" />
        <path
           style="fill:#3eaf99"
           inkscape:connector-curvature="0"
           id="path6365"
           d="m 58.2,318.6 c 0.7,-1.7 4.8,-1.8 5.5,-0.5 a 3.3,3.3 0 0 1 -0.7,4 c -1.3,1.4 -6.4,0.4 -4.8,-3.5 z"
           class="cls-7" />
        <path
           style="fill:#ffdc9c"
           inkscape:connector-curvature="0"
           id="path6367"
           d="m 56.9,316.9 c -0.1,-0.7 -0.9,-0.8 -1.5,-0.5 a 3,3 0 0 0 -1.7,1.8 c -0.3,1 0.1,2 -0.3,2.9 a 1.6,1.6 0 0 1 -0.7,0.9 h -0.6 c -0.2,-0.1 -0.2,-0.1 -0.2,0 v 0 a 0.5,0.5 0 0 0 -0.3,-0.5 h -0.4 a 0.6,0.6 0 0 0 -0.6,0.6 c -0.1,1 1.2,1.4 1.9,1.3 a 2.2,2.2 0 0 0 1.9,-1.4 5.7,5.7 0 0 0 0.4,-2.9 1.4,1.4 0 0 1 0.6,-1.3 c 0.3,-0.3 0.7,-0.8 1.2,-0.6 0.5,0.2 0.3,-0.1 0.3,-0.2 z"
           class="cls-5" />
        <path
           style="fill:#ffdc9c"
           inkscape:connector-curvature="0"
           id="path6369"
           d="m 65.5,316.6 v 0 a 0.4,0.4 0 0 1 -0.1,0.3 c 0.1,-0.1 0.6,0.1 0.7,0.1 l 0.8,0.4 a 3.8,3.8 0 0 1 0.9,1.5 c 0.3,1.1 -0.1,2.5 0.7,3.5 a 2.3,2.3 0 0 0 2.9,0.2 2.4,2.4 0 0 0 1,-1.4 1,1 0 0 0 -1,-1.1 0.7,0.7 0 0 0 -0.7,0.6 h -0.1 a 1.1,1.1 0 0 0 0.3,0.8 h 0.3 c 0.3,0.1 0.2,0 -0.1,-0.3 -0.3,-0.3 -0.2,-0.3 -0.3,-0.2 -0.1,0.1 -0.2,0.4 -0.4,0.4 a 0.7,0.7 0 0 1 -1,-0.3 c -0.2,-0.4 0,-1.1 -0.1,-1.5 a 4.2,4.2 0 0 0 -0.4,-1.6 3.6,3.6 0 0 0 -2.1,-1.9 c -0.4,-0.1 -1.8,-0.2 -1.7,0.5 a 0.2,0.2 0 0 0 0.2,0.2 v 0 c 0.2,0 0.3,-0.1 0.2,-0.3 z"
           class="cls-5" />
        <path
           style="fill:#ffffff"
           inkscape:connector-curvature="0"
           id="path6371"
           d="m 59.7,314.9 c 0.3,3 -0.2,5.9 -0.1,8.9 a 51.5,51.5 0 0 0 0.9,8.8 h 0.2 a 46.8,46.8 0 0 1 -0.9,-9.1 c 0,-1.5 0,-2.9 0.1,-4.3 a 12.3,12.3 0 0 0 -0.2,-4.3 z"
           class="cls-3" />
        <path
           style="fill:#ffffff"
           inkscape:connector-curvature="0"
           id="path6373"
           d="m 61,314.9 a 66.3,66.3 0 0 0 0.1,8.9 q 0.3,4.3 0.9,8.7 c 0,0.1 0.2,0 0.2,-0.1 a 87.5,87.5 0 0 1 -0.9,-8.8 c -0.2,-2.9 -0.2,-5.8 -0.3,-8.7 z"
           class="cls-3" />
        <path
           style="fill:#ffffff"
           inkscape:connector-curvature="0"
           id="path6375"
           d="m 62.2,314.5 c 0.1,3.1 0.5,6.1 0.8,9.2 0.1,1.5 0.3,3 0.4,4.5 0.1,1.5 0.3,3 0.5,4.5 h 0.2 c -0.1,-1.6 -0.3,-3.1 -0.5,-4.6 -0.2,-1.5 -0.2,-3.1 -0.4,-4.6 -0.2,-1.5 -0.5,-6 -1,-9 z"
           class="cls-3" />
        <path
           style="fill:#ffffff"
           inkscape:connector-curvature="0"
           id="path6377"
           d="m 59.9,308.7 c -0.1,-2 -0.2,-4.1 -0.2,-6.2 0,-2.1 -0.2,-4.1 -0.4,-6.1 -0.5,-4.2 -0.9,-8.4 -1.3,-12.6 0,-0.1 -0.2,-0.1 -0.2,0 0.5,4.2 0.9,8.5 1.4,12.7 q 0.3,3.2 0.3,6.3 a 28.8,28.8 0 0 0 0.4,5.9 z"
           class="cls-3" />
        <path
           style="fill:#ffffff"
           inkscape:connector-curvature="0"
           id="path6379"
           d="m 58.7,284.1 c 0,1 0.2,2.1 0.3,3.1 0.1,1 0.2,2.1 0.4,3.1 l 0.6,6.1 q 0.8,6.2 1.2,12.3 c 0,0.1 0.2,0.1 0.2,0 -0.2,-4.1 -0.7,-8.3 -1.2,-12.4 -0.2,-2.1 -0.4,-4.1 -0.7,-6.2 l -0.3,-3 a 27.2,27.2 0 0 0 -0.4,-3 c 0,-0.1 -0.1,-0.1 -0.1,0 z"
           class="cls-3" />
        <path
           style="fill:#ffffff"
           inkscape:connector-curvature="0"
           id="path6381"
           d="m 59.7,283.8 a 28.9,28.9 0 0 0 0.4,2.9 c 0.2,1 0.3,2 0.5,3 0.2,1 0.7,3.8 0.9,5.8 0.6,4 0.9,8.1 1.1,12.1 h 0.2 a 117.6,117.6 0 0 0 -1.1,-11.8 c -0.3,-2 -0.5,-4 -0.9,-6 -0.4,-2 -0.3,-2 -0.4,-3 -0.1,-1 -0.3,-2 -0.6,-3 z"
           class="cls-3" />
        <path
           style="fill:#ffffff"
           inkscape:connector-curvature="0"
           id="path6383"
           d="m 58.2,269.9 a 36.8,36.8 0 0 0 0,4.7 22.3,22.3 0 0 0 0.2,4.5 h 0.2 c 0,-0.8 -0.1,-1.5 -0.1,-2.3 a 17.7,17.7 0 0 1 -0.1,-2.3 c -0.1,-1.6 -0.1,-3.1 -0.1,-4.6 z"
           class="cls-3" />
        <path
           style="fill:#ffffff"
           inkscape:connector-curvature="0"
           id="path6385"
           d="m 59.3,269.7 c -0.1,1.8 -0.1,3.7 -0.1,5.5 v 2.6 c 0,0.3 -0.1,0.9 0.1,1.1 0.2,0.2 0.1,0.2 0.2,0.2 v 0 a 4,4 0 0 0 0,-1.1 v -1.2 a 17.7,17.7 0 0 0 -0.1,-2.3 c 0,-1.5 0,-3 -0.1,-4.6 z"
           class="cls-3" />
        <path
           style="fill:#330800"
           inkscape:connector-curvature="0"
           id="path6387"
           d="m 48.9,287.3 a 0.5,0.5 0 0 0 0.6,0.6 0.7,0.7 0 0 0 0.5,-1.1 c 0,-0.1 -0.1,-0.1 -0.2,0 a 1.1,1.1 0 0 1 -0.2,0.8 0.5,0.5 0 0 1 -0.7,-0.3 z"
           class="cls-4" />
        <path
           style="fill:#330800"
           inkscape:connector-curvature="0"
           id="path6389"
           d="m 51.6,285.9 c 0,0.4 0.4,0.5 0.7,0.4 0.3,-0.1 0.4,-0.9 0.1,-1.1 h -0.2 c -0.1,0.2 0.1,0.4 0,0.6 -0.1,0.2 -0.1,0.2 -0.1,0.3 0,0.1 -0.3,0 -0.4,-0.2 z"
           class="cls-4" />
        <path
           style="fill:#330800"
           inkscape:connector-curvature="0"
           id="path6391"
           d="m 51.3,289.3 a 1.6,1.6 0 0 0 1.5,0.2 1.3,1.3 0 0 0 0.8,-1.1 h -0.2 a 2.7,2.7 0 0 1 -0.7,0.8 1.4,1.4 0 0 1 -1.4,0.1 c 0,0 -0.1,0 0,0.1 z"
           class="cls-4" />
        <path
           style="fill:#330800"
           inkscape:connector-curvature="0"
           id="path6393"
           d="m 51.8,288 h 0.1 a 0.1,0.1 0 0 0 0.1,-0.1 h -0.2 v 0.2 z"
           class="cls-4" />
        <path
           style="fill:#330800"
           inkscape:connector-curvature="0"
           id="path6395"
           d="m 52.3,287.6 h 0.1 c 0,-0.1 -0.1,-0.1 -0.1,0 z"
           class="cls-4" />
        <path
           style="fill:#ffffff"
           inkscape:connector-curvature="0"
           id="path6397"
           d="m 48.2,285.4 a 7.9,7.9 0 0 0 2.6,-1.3 6.5,6.5 0 0 0 1.8,-2.2 c 0,-0.1 -0.1,-0.2 -0.2,-0.1 a 8.1,8.1 0 0 0 -0.9,1 l -1,0.9 a 8.3,8.3 0 0 1 -2.3,1.5 0.1,0.1 0 0 0 0,0.2 z"
           class="cls-3" />
        <path
           style="fill:#ffffff"
           inkscape:connector-curvature="0"
           id="path6399"
           d="m 71.8,338.7 h 0.9 l 0.7,0.2 c 0.1,0 0.2,-0.1 0.1,-0.1 -0.1,0 -1.2,-0.6 -1.8,-0.5 -0.6,0.1 -0.1,0.4 0.1,0.3 z"
           class="cls-3" />
        <path
           style="fill:#330800"
           inkscape:connector-curvature="0"
           id="path6401"
           d="m 63,271.5 c 0,0.2 -0.2,0.3 -0.4,0.3 -0.2,0 -0.4,-0.1 -0.4,-0.3 a 0.4,0.4 0 0 1 0.8,0 z"
           class="cls-4" />
        <path
           style="fill:#330800"
           inkscape:connector-curvature="0"
           id="path6403"
           d="m 63.1,273.2 c 0,0.2 -0.1,0.4 -0.3,0.4 a 0.4,0.4 0 0 1 0,-0.8 c 0.2,0 0.3,0.2 0.3,0.4 z"
           class="cls-4" />
        <path
           style="fill:#330800"
           inkscape:connector-curvature="0"
           id="path6405"
           d="m 63.3,275.3 a 0.3,0.3 0 0 1 -0.3,0.3 c -0.2,0 -0.4,-0.1 -0.4,-0.3 a 0.4,0.4 0 0 1 0.4,-0.4 c 0.2,0 0.3,0.2 0.3,0.4 z"
           class="cls-4" />
        <path
           style="fill:#ffdc9c"
           inkscape:connector-curvature="0"
           id="path6407"
           d="m 57.7,332.4 a 5.8,5.8 0 0 0 3.2,0.6 19.4,19.4 0 0 0 3.4,0.2 0.75,0.75 0 0 0 0,-1.5 h -3.4 a 11.2,11.2 0 0 0 -3.2,0.4 c -0.1,0.1 -0.1,0.3 0,0.3 z"
           class="cls-5" />
        <path
           style="fill:#330800"
           inkscape:connector-curvature="0"
           id="path6409"
           d="m 62.2,341.8 0.3,-3.7 a 11,11 0 0 1 0.2,-1.8 c 0,-0.5 0.2,-1.1 -0.1,-1.6 h -0.5 a 1.8,1.8 0 0 0 -0.4,1.4 c -0.1,0.6 -0.1,1.3 -0.2,1.9 a 23.8,23.8 0 0 0 0.1,3.8 0.3,0.3 0 1 0 0.6,0 z"
           class="cls-4" />
      </g>
    </g>
  </g>
</svg>
