<svg id="Ebene_1" data-name="Ebene 1" xmlns="http://www.w3.org/2000/svg" viewBox="0 0 538.9 543.2">
  <defs>
    <style>
      .cls-1 {
        fill: #d42b00;
      }

      .cls-2 {
        fill: #fff;
      }

      .cls-3 {
        fill: #3db099;
      }

      .cls-4 {
        fill: #330800;
      }

      .cls-5 {
        fill: #4f4545;
      }
    </style>
  </defs>
  <g>
    <path class="cls-1" d="M419.2,364c-5.3-12.6-14.9-27.1-27.3-34.4A103,103,0,0,0,356,310.2c-6.9-2-13.7-3.8-20.4-6.5l20.7,8.7c-11.9-5.1-23.7-9.7-35.6-14.5,6.8,2.9,60.4-74.6,31.9-98.2-13.5-11.2-16.8-33.7-97.2-41.5-8.1-.8-52-6-78.1,15.9-31.7,26.6-44.1,83.7-39,99.2S172.5,376,181.6,389.1c18.6,26.9,42.4,50.3,71.3,66.1,15.3,8.4,31.3,15.1,48.5,17.8,19.6,3,36.2,6.5,55.8.7a106,106,0,0,0,32.1-15.5,65.9,65.9,0,0,0,14.1-10.6c12-12,18.8-27.4,21.1-43.9a73.1,73.1,0,0,0-5.3-39.7Z" transform="translate(-36 -125)"/>
    <path class="cls-2" d="M528.5,282c-9.4-24.7-26.9-55.3-48.3-70.8-24.4-17.7-52.6-27-82.1-31.2-15.1-2.1-30.2-1.2-45.3-.4s-29.6,3.3-44.3,9.8c-27.9,12.2-45,41.9-43.8,71.8a71.9,71.9,0,0,0,11.1,36.5c8.3,13.4,21.5,26.7,37.2,31.3,19.2,5.7,34.8,7.3,54.7,4.3,6.9-1,13.8-1.8,20.8-2.2l-19.9.8a135.5,135.5,0,0,1,33.6,2.8l-19.8-4.5a127.1,127.1,0,0,1,28.1,10L393,330.8a98.2,98.2,0,0,1,19.1,13.7l-13.6-13a93.2,93.2,0,0,1,13.3,16.2l-9.5-15.4a80.6,80.6,0,0,1,7.7,16.9l-5.3-17c4.4,15.4,4.4,31.3,11.8,46.1,8.8,17.6,21.5,32.1,37,44,23,17.7,47.7,37.9,76.1,24.2,10.3-5,42.8-49-1.1-164.5Z" transform="translate(-36 -125)"/>
    <path class="cls-3" d="M506.3,420.9c-10-20.4-29.1-33.9-47.1-47.1a122.5,122.5,0,0,1-12-11.9c-9.8-12.5-20.6-23.2-38.1-26.5s-34.5-3-49.3,6.5-24.5,21.8-29.5,38.3c-11.6,38.8,14.6,69.9,42.8,91.7l12,9.2c-1.5,1.6-3.1,3.1-4.8,4.6-13.2,9.3-26.9,17.6-39.2,28.3-15.6,13.5-29.1,33.9-32.5,54.6-1.9,11.5-2.9,21.2-.1,32.8,1.6,6.8,11.2,22.9,19.9,26.9,37.6,17.3,65.7,10.2,105.7-19.5,24.3-18,54.2-65.1,65.6-87.7,5.4-10.8,10.9-23.1,13.6-35.1,5.1-23,3.3-44-7-65.1Z" transform="translate(-36 -125)"/>
    <path class="cls-3" d="M311.1,415.6l-13.4,14.2c9-9.3,17.5-19,26.4-28.3l-13.7,14.4a165,165,0,0,1,16.4-14.7c10.6-8.1,19.1-17.5,26.8-27.6,18-23.5,13.5-55.6-6.6-76.9s-56.8-33.3-89.2-24.9c-21.5,5.7-40.5,13.6-56,27.3a273.4,273.4,0,0,0-28.9,30.2c-13.9,16.7-22.8,37.4-27.5,57.3a267.7,267.7,0,0,0-7.1,59.7c-.1,22.4,6,44.5,9.9,66.6-.8-5,152.4-86.1,162.9-97.3Z" transform="translate(-36 -125)"/>
    <path class="cls-4" d="M141.1,559.4c-18.1-34.2-24-103.9,55.3-142.2s124.8-50,170.6-74.5,90.8-47.9,124.1,0,23.9,170.9-5.9,212.5-217.5,47.6-271.9,42.6-57.8-11.2-72.2-38.4Z" transform="translate(-36 -125)"/>
    <path class="cls-5" d="M196.7,360.1c-.1,0-.1-.1-.2-.2s.1.2.2.2Z" transform="translate(-36 -125)"/>
    <path class="cls-5" d="M217.4,359.6l.5-.3-.9.5.3-.2Z" transform="translate(-36 -125)"/>
    <path class="cls-2" d="M348.5,158c13.3-4.9,29.8-5.3,43.8-4.8a184.7,184.7,0,0,1,22.3,2c8,1.2,17.5,2.2,24.6-2.4,4.6-3.1,6.3-8.8,3.6-13.7-9.3-17-38.6-14.8-54.8-12.7s-37.2,5.9-48,20.6c-3.8,5.1,2.5,13.2,8.5,11Z" transform="translate(-36 -125)"/>
    <path class="cls-2" d="M540.8,502.5c-4.5,6.6-7.3,14.8-10.5,22.1A206.1,206.1,0,0,1,519,545.9a235.5,235.5,0,0,1-28.8,38.5c-12,12.9-25.6,23.8-39,35.2-6.9,5.9-14,11.7-20.8,17.8s-13.8,12.6-16.2,20.3c-1.2,3.9,1.5,9.4,5.8,10.2,9.3,1.5,20.3-2.9,28.6-6.8a205.3,205.3,0,0,0,24.2-13.6c16.9-11,32.4-25.1,45.7-40.2a178.9,178.9,0,0,0,30.6-47.7c6.7-16,13.9-37.6,8.4-54.9-2.5-7.8-12.2-8.6-16.7-2.2Z" transform="translate(-36 -125)"/>
    <path class="cls-2" d="M60.4,402.8c.2,11,9.8,19.2,18.2,24.9s17.6,14.3,27.5,14.9a8.7,8.7,0,0,0,7.7-4.4c6.4-12.9-4.2-24.1-15.5-29.4-9-4.2-17.9-8.2-26.7-12.4-4.9-2.4-11.3.4-11.2,6.4Z" transform="translate(-36 -125)"/>
    <path class="cls-2" d="M40.1,493.4c10.2,4.3,20.1,4.8,31.1,4.1,9.1-.6,19.3-.7,27.7-4.5,6.2-2.7,6.8-11,4.3-16.2-5.4-11.4-19.5-10.5-29.9-8.8s-23.5,3.7-33.2,10.9c-4.4,3.3-6.5,11.7,0,14.5Z" transform="translate(-36 -125)"/>
    <path class="cls-2" d="M59.1,571.9c13.1-.5,26.9-8.1,38.3-14,6.8-3.6,23.4-12.8,18.3-22.9s-24.2-3.8-31.9-.4c-11.7,5-25.9,13.5-31.6,25.3-2.5,5.1.4,12.3,6.9,12Z" transform="translate(-36 -125)"/>
    <path class="cls-4" d="M449.9,218.8c1.4,2.1,3,4.1,4.5,6.1s2.5,4.8,4.7,5.9a2.4,2.4,0,0,0,3.6-2c.2-2.9-2.4-5.5-4.2-7.5a18.8,18.8,0,0,0-6.8-4.8,1.6,1.6,0,0,0-1.8,2.3Z" transform="translate(-36 -125)"/>
    <path class="cls-4" d="M465.7,243.2a13.9,13.9,0,0,0,2.1,6,22.2,22.2,0,0,0,3.9,5.7c2,2.1,6.3,0,5.1-3a27,27,0,0,0-3.5-5.9c-1.3-1.7-2.6-3.5-4.6-4.5a2,2,0,0,0-3,1.7Z" transform="translate(-36 -125)"/>
    <path class="cls-4" d="M477.7,269.1a21.1,21.1,0,0,1,2.6,4.9c.5,1.8.5,3.7.9,5.6s3.8,2.6,4.7.6c2.5-5.2-.8-11.8-6-13.9-1.6-.7-3,1.5-2.2,2.8Z" transform="translate(-36 -125)"/>
    <path class="cls-4" d="M485.1,298.4a21,21,0,0,0,1.7,7.8c.9,2.1,3.3,5.6,6,4s1.1-3.8.2-5.4-3.4-4.8-5-7.2-3-.9-2.9.8Z" transform="translate(-36 -125)"/>
    <path class="cls-4" d="M495,328.6c-.3,2.8.6,6.1,1.3,8.8s1.9,5,4.5,4.4,2.3-3.8,1.8-5.6a27.7,27.7,0,0,0-3.4-8.8,2.3,2.3,0,0,0-4.2,1.2Z" transform="translate(-36 -125)"/>
    <path class="cls-4" d="M501.2,361c.3,3.5.3,10.3,4.3,11.8a1.7,1.7,0,0,0,1.4-.4c2.8-3-.2-8.8-1.5-12s-4.5-2.1-4.2.6Z" transform="translate(-36 -125)"/>
    <path class="cls-4" d="M429.9,197.5a4.6,4.6,0,0,0,.5,3.6,24.8,24.8,0,0,0,1.9,2.6c1.3,1.5,3.4,2.9,5.3,2.5a1.6,1.6,0,0,0,1.1-1c.5-1.9-.8-4.1-2-5.4a13.7,13.7,0,0,0-2.3-1.9,4,4,0,0,0-3.6-1.1,1.1,1.1,0,0,0-.9.7Z" transform="translate(-36 -125)"/>
    <path class="cls-4" d="M454.9,192.5a9.1,9.1,0,0,0,.8,8c1.3,2.1,4.2,4.6,6.8,3.1a1.6,1.6,0,0,0,.7-1.7c-.4-1.7-2-2.7-3-4a11.5,11.5,0,0,1-2-5,1.7,1.7,0,0,0-3.3-.4Z" transform="translate(-36 -125)"/>
    <path class="cls-4" d="M472.3,215.4c.6,4,2.7,9.5,7.1,10.7a2.4,2.4,0,0,0,2.9-2.9c-1.1-3.5-4.6-6.2-6.6-9.2a1.9,1.9,0,0,0-3.4,1.4Z" transform="translate(-36 -125)"/>
    <path class="cls-4" d="M487.8,245.1c2.3,1.8,4,5.4,5.2,8s1.7,5.8,4,7.1a1.8,1.8,0,0,0,2.1-.3c2.7-2.3,1-7.5-.5-10.1a16.9,16.9,0,0,0-3.7-4.3c-1.6-1.3-3.4-1.9-5.2-2.9s-3.4,1.3-1.9,2.5Z" transform="translate(-36 -125)"/>
    <path class="cls-4" d="M503.7,279c1,2.9,2.2,5.8,3.4,8.7s2.1,5.5,4.8,6.9a1.6,1.6,0,0,0,2.2-.6c3.7-5.7-3.1-14-7.5-17.3-1.4-1-3.5.7-2.9,2.3Z" transform="translate(-36 -125)"/>
    <path class="cls-4" d="M517.5,319.2c0,5.8-.9,16.1,6.1,18.5a1.7,1.7,0,0,0,1.8-.8c1.4-2.9.6-5.2-.5-8.2s-2.5-6.7-3.1-10.1-4.3-1.8-4.3.6Z" transform="translate(-36 -125)"/>
    <path class="cls-4" d="M528.2,363.5c-1,3.6-4.5,19.5,2.4,19.6S534,367,533,363.5a2.5,2.5,0,0,0-4.8,0Z" transform="translate(-36 -125)"/>
    <path class="cls-4" d="M524.4,415.9a29.2,29.2,0,0,1,2.1-5.6c.9-1.6,2.2-3.2,2.6-5a1.8,1.8,0,0,0-1.6-2.2c-5.7.1-8.5,8.1-7.5,12.8.4,2.3,3.7,2,4.4,0Z" transform="translate(-36 -125)"/>
    <path class="cls-4" d="M507.8,401.3c.8-1.9,1.5-3.6,2.4-5.4a18,18,0,0,0,2-5.3c.2-1.2-.6-2.3-1.9-1.9-4.9,1.3-7.2,7.3-7.7,11.9a2.7,2.7,0,0,0,2.3,2.6,2.7,2.7,0,0,0,2.9-1.9Z" transform="translate(-36 -125)"/>
    <path class="cls-4" d="M481.6,188.2a24,24,0,0,0,5.6,8.8,3.4,3.4,0,0,0,4.6.2c1.3-1,2-3.1.9-4.5a23.7,23.7,0,0,0-7.8-7c-1.6-.9-4,.6-3.3,2.5Z" transform="translate(-36 -125)"/>
    <path class="cls-4" d="M495.7,211.2c2.7,2.1,4.3,5.2,5.6,8.2s2.3,5.7,4.8,3.7.6-6.4-.7-8.5a16,16,0,0,0-7.5-6.1c-1.7-.7-3.9,1.4-2.2,2.7Z" transform="translate(-36 -125)"/>
    <path class="cls-4" d="M509.9,237.3c1.3,4,3.8,11.5,9.2,11.3a1.4,1.4,0,0,0,1.4-1.4c-.1-2.2-1.7-3.9-3-5.5a57.9,57.9,0,0,1-4.4-5.7c-.9-1.7-3.8-.6-3.2,1.3Z" transform="translate(-36 -125)"/>
    <path class="cls-4" d="M523.2,266.8c1.2,3.7,1.5,9.9,5.5,11.9a1.4,1.4,0,0,0,1.7-.2c3.7-4.5-.9-10.4-4.2-13.5a1.8,1.8,0,0,0-3,1.8Z" transform="translate(-36 -125)"/>
    <path class="cls-4" d="M535.6,304.2c.6,2.7,2.1,15.5,7.1,13.2s-1.3-12.6-3.4-15.3-4.1.2-3.7,2.1Z" transform="translate(-36 -125)"/>
    <path class="cls-4" d="M541.9,344.9c.9,4.4-.4,10.8,3.4,13.9a1.3,1.3,0,0,0,2,0c4.9-3.8.9-11.4-1.3-15.6-1.2-2.4-4.6-.7-4.1,1.7Z" transform="translate(-36 -125)"/>
    <path class="cls-4" d="M544,385c-.3,4.1-2.9,9.4-.1,13.1a1.3,1.3,0,0,0,1.8.5c5.4-2.3,3.6-9.9,2.7-14.2-.5-2.6-4.2-1.8-4.4.6Z" transform="translate(-36 -125)"/>
    <path class="cls-4" d="M531.7,430.2a10.5,10.5,0,0,0,8.1-4.5c1.5-2,3.4-6.3,1.2-8.4a1.6,1.6,0,0,0-1.5-.3c-1.9.6-3,3.1-4.3,4.6a32.4,32.4,0,0,1-5,4.8c-1.5,1.3-.3,3.8,1.5,3.8Z" transform="translate(-36 -125)"/>
    <path class="cls-4" d="M505.8,195.2a23.9,23.9,0,0,0,3.7,7.5c1.6,2.4,3.2,4.7,5.8,5.9a1.2,1.2,0,0,0,1.8-1c.7-5.5-5.2-12.1-10.2-13.4a.9.9,0,0,0-1.1,1Z" transform="translate(-36 -125)"/>
    <path class="cls-4" d="M523.4,223.8a41.6,41.6,0,0,0,4.4,9.9c1,1.9,3.3,5.9,6.1,4.3s.4-5.6-.7-7.5a42.3,42.3,0,0,0-6.5-8.6,2,2,0,0,0-3.3,1.9Z" transform="translate(-36 -125)"/>
    <path class="cls-4" d="M546.5,263c1.3,2.6,6.4,15.7,11,12.3s-6.1-12.5-8.1-14.6-3.9.4-2.9,2.3Z" transform="translate(-36 -125)"/>
    <path class="cls-4" d="M557.4,293.8a19.4,19.4,0,0,0,2.7,14.5c1.7,2.7,6.3,1.1,5.3-2.2a59.4,59.4,0,0,0-5.7-12.6,1.3,1.3,0,0,0-2.3.3Z" transform="translate(-36 -125)"/>
    <path class="cls-4" d="M564.3,329a21.9,21.9,0,0,1,1,5.1c.1,1.8-.3,3.5-.2,5.2s4.5,4.6,5.8,1.6c2.1-4.8.3-10.2-3.3-13.8-1.3-1.3-3.9,0-3.3,1.9Z" transform="translate(-36 -125)"/>
    <path class="cls-4" d="M568,360c.4,4.6-.1,12.2,3.8,15.4a1.3,1.3,0,0,0,2.1-.2c2.6-4.5-.5-11.2-1.7-15.8-.6-2.2-4.4-1.9-4.2.6Z" transform="translate(-36 -125)"/>
    <path class="cls-4" d="M565.6,393.7c-.7,3.9-1.7,8.6-.9,12.6a1.5,1.5,0,0,0,2.2.9c5.1-2.3,5.7-9.7,3.5-14.1-1-2-4.4-1.6-4.8.6Z" transform="translate(-36 -125)"/>
    <path class="cls-4" d="M559.6,421.2a53.6,53.6,0,0,1-2.6,5.4c-1,1.6-2.3,3.4-2.3,5.4a2,2,0,0,0,2.1,2c5.2.4,8-7.3,7.9-11.4-.1-2.5-4-4.1-5.1-1.4Z" transform="translate(-36 -125)"/>
    <path class="cls-4" d="M536.4,463.4c4.4-1.3,9.8-5.8,10.9-10.4.4-1.8-1.7-3.8-3.4-2.6a30,30,0,0,0-4.8,4.6c-1.6,1.6-3.3,3-4.8,4.7s-.1,4.3,2.1,3.7Z" transform="translate(-36 -125)"/>
    <path class="cls-4" d="M521.2,448.3c3-1.8,8.1-3.6,8.9-7.5a1.6,1.6,0,0,0-1.5-2c-2-.2-3.8,1.1-5.3,2.2l-2.3,1.8-2.3,2.3c-1.7,1.6.6,4.5,2.5,3.2Z" transform="translate(-36 -125)"/>
    <path class="cls-4" d="M514.9,429.4c1-.5,2.9-1.8,2.1-3.2s-3-.6-4.1-.1a1.9,1.9,0,0,0-.6,2.6,1.8,1.8,0,0,0,2.6.7Z" transform="translate(-36 -125)"/>
    <path class="cls-4" d="M520.8,472.6a16.1,16.1,0,0,0,4.6-2.6,13,13,0,0,0,3.1-3.9,1.1,1.1,0,0,0-1.2-1.6,11,11,0,0,0-4.6,1.6,14.8,14.8,0,0,0-3.7,3.4c-1.1,1.2-.1,3.9,1.8,3.1Z" transform="translate(-36 -125)"/>
    <path class="cls-4" d="M451.9,174.8c1.6,2.2,4.1,3.6,6.5,4.9s4.8,2.8,7,1.5a1.5,1.5,0,0,0,.8-1.4c-.2-2.6-2.9-3.9-5-4.9s-5-2.6-7.8-2.7a1.8,1.8,0,0,0-1.5,2.6Z" transform="translate(-36 -125)"/>
    <path class="cls-4" d="M426.8,173.6c1.7,5.1,7.5,9,13,8.2,2.5-.4,2.1-4.1,0-4.7s-3.9-.8-5.7-1.6a23.8,23.8,0,0,1-4.9-3.4c-1-.8-3-.1-2.4,1.5Z" transform="translate(-36 -125)"/>
    <path class="cls-4" d="M399.5,193.8a27.1,27.1,0,0,0,10,3.5c2.9.5,6.1,1.1,8.5-1a1.6,1.6,0,0,0,0-2.3c-2-2.2-5.1-2-7.8-2.2a83.9,83.9,0,0,0-10-.6,1.4,1.4,0,0,0-.7,2.6Z" transform="translate(-36 -125)"/>
    <path class="cls-4" d="M397.4,173.3c4.1,1.9,11.6,3.4,14.9-.7a1,1,0,0,0-.5-1.8c-2.2-.7-4.2,0-6.5.2a44.5,44.5,0,0,1-7.3,0,1.2,1.2,0,0,0-.6,2.3Z" transform="translate(-36 -125)"/>
    <path class="cls-4" d="M443.9,161.6a6.7,6.7,0,0,0,4.4,2.2c1.4.1,3.2-.3,4-1.6a1.2,1.2,0,0,0-.2-1.5,6.1,6.1,0,0,0-3.2-1.3,25.8,25.8,0,0,0-3.9-.4,1.6,1.6,0,0,0-1.1,2.6Z" transform="translate(-36 -125)"/>
    <path class="cls-4" d="M475.9,165.7c1.4,2,2.2,3.7,4.4,5a10.4,10.4,0,0,0,6.8,1.7c2.8-.3,3.6-4,.7-4.9l-5.1-1.6c-1.6-.6-3.6-1.1-4.9-2.1a1.4,1.4,0,0,0-1.9,1.9Z" transform="translate(-36 -125)"/>
    <path class="cls-4" d="M559.3,521.8a48,48,0,0,0-.5-11.4l-1.5-.8a58.9,58.9,0,0,0-17.1-6.1,64.4,64.4,0,0,0-4,7.3c5.7,1.3,11.2,2.9,16.7,6.3a50.2,50.2,0,0,1,6.4,4.7Z" transform="translate(-36 -125)"/>
    <path class="cls-4" d="M554.1,546.5c1.2-3.7,2.3-7.5,3.2-11.3a15.1,15.1,0,0,0-2.6-1.8c-5.5-3.4-11.9-5.5-17.9-7.9l-5.9-2.4-.6,1.5c-1,2.2-2,4.3-3.1,6.5,7.2,3.4,15,6.1,21.5,10.2a22.2,22.2,0,0,1,5.4,5.2Z" transform="translate(-36 -125)"/>
    <path class="cls-4" d="M536.4,558.2c3.4,2.3,6.9,4.4,10.3,6.8l2.4-5.4c.6-1.3,1.1-2.7,1.7-4.1l-2.6-1.5c-5.5-3.2-11.3-6.1-16.7-9.5a64.1,64.1,0,0,1-8.1-6.2c-1.3,2.3-2.6,4.7-4,7,5,5.1,11.4,9.3,17,12.9Z" transform="translate(-36 -125)"/>
    <path class="cls-4" d="M529.7,583.1c1,2.1,1.8,4.4,2.6,6.6,2.4-3.4,4.6-6.9,6.8-10.5a35.6,35.6,0,0,0-8.2-11.1,85.1,85.1,0,0,0-18.2-12.2c-1.6,2.4-3.4,4.9-5.1,7.3,8.7,5.4,17.5,10.7,22.1,19.9Z" transform="translate(-36 -125)"/>
    <path class="cls-4" d="M505.5,591.2c3.1,7,4.4,14.7,8.1,21.5l4.9-5.4,2.8-3.3c-1.6-3.4-2.7-7.1-4.1-10.8-3.1-8.9-8.5-16.9-16.3-21.2l-5.6,6.7a33.1,33.1,0,0,1,10.2,12.5Z" transform="translate(-36 -125)"/>
    <path class="cls-4" d="M485.6,604.9A119.7,119.7,0,0,1,496,620.7l3.4,6.1,8.1-7.8-6.2-9.8c-4.1-6.6-9.6-14.5-16.6-19.1l-7.2,6.8a76.4,76.4,0,0,1,8.1,8Z" transform="translate(-36 -125)"/>
    <path class="cls-4" d="M478.8,640.4l1.4,2.1,8.2-6.4c-2.2-3.1-4.3-6.3-6.6-9.4l-11.7-17.1c-.9-1.2-1.7-2.5-2.6-3.8l-6.6,5.6,3.8,6.5q6.6,11.6,14.1,22.5Z" transform="translate(-36 -125)"/>
    <path class="cls-4" d="M156,645.1a81.5,81.5,0,0,1,4.9,8c3-1.8,6.1-3.6,9-5.6h0c-1.4-2.5-3-4.7-4.3-6.7a79,79,0,0,0-12.7-14.4,56.5,56.5,0,0,0-6.9-4.8l-6.4,5.4a34.4,34.4,0,0,1,4.1,3.5A95.1,95.1,0,0,1,156,645.1Z" transform="translate(-36 -125)"/>
    <path class="cls-4" d="M145.8,661.1l6.1-3.1-2.7-3.8c-5.1-7.2-10.2-15-16.4-21.4l-4.9,4.2c4,8.9,9.7,17.2,15.1,25.3l2.8-1.2Z" transform="translate(-36 -125)"/>
    <path class="cls-4" d="M133,666.2c-.6-.6-1.2-1.1-1.7-1.7a64.4,64.4,0,0,1-12.6-18.6,37.8,37.8,0,0,0-5.4,7.4c1.8,5.4,5.5,10.6,8.7,14.9a43.3,43.3,0,0,0,11-2Z" transform="translate(-36 -125)"/>
    <path class="cls-1" d="M202.9,499.5V472.2h5.5c6.8,0,12.9,6.2,12.9,13.7s-6.1,13.6-12.9,13.6Zm5.5,7.8c11.2,0,21.1-9.8,21.1-21.4s-9.9-21.5-21.1-21.5H194.7v42.9Zm41.5-31.6a10.1,10.1,0,0,0-7.5,3.7l-1.3-3.4h-5.8v31.3h7.8V490.6c0-4,2.7-6.8,6.5-6.8a7.9,7.9,0,0,1,2.7.4V476a9.2,9.2,0,0,0-2.4-.3Zm20.1,32a14.7,14.7,0,0,0,8.9-3.4l1.4,3H286V476h-7.8v17.4c0,4.1-2.7,6.8-6.5,6.8s-6.4-2.7-6.4-6.8V476h-7.9v18.4c0,8.2,5.1,13.3,12.6,13.3Zm38.2-32a11.2,11.2,0,0,0-7.5,3.4l-1.4-3.1h-5.8v31.3h7.9v-18c0-3.8,2.4-6.2,5.1-6.2s5.1,2.4,5.1,6.2v18h7.8v-18c0-3.8,2.4-6.2,5.1-6.2s5.2,2.4,5.2,6.2v18h7.8V488.6c0-8.5-4.4-12.9-11.2-12.9a13.7,13.7,0,0,0-9.2,4s-2.4-4-8.9-4Zm69.2,24.1c-5.5,0-8.9-3.4-8.9-8.8V464.4h-8.2V491c0,9.5,7.2,16.7,17.1,16.7s17-7.2,17-16.7V464.4h-8.2V491c0,5.4-3.4,8.8-8.8,8.8Zm25.5-35.4v42.9h8.2V493h7.8a14.3,14.3,0,1,0,0-28.6Zm8.2,20.8v-13h7.8a6.5,6.5,0,0,1,0,13Z" transform="translate(-36 -125)"/>
  </g>
</svg>
