<?xml version="1.0" encoding="UTF-8" standalone="no"?>
<!-- Created with Inkscape (http://www.inkscape.org/) -->

<svg
   xmlns:dc="http://purl.org/dc/elements/1.1/"
   xmlns:cc="http://creativecommons.org/ns#"
   xmlns:rdf="http://www.w3.org/1999/02/22-rdf-syntax-ns#"
   xmlns:svg="http://www.w3.org/2000/svg"
   xmlns="http://www.w3.org/2000/svg"
   xmlns:sodipodi="http://sodipodi.sourceforge.net/DTD/sodipodi-0.dtd"
   xmlns:inkscape="http://www.inkscape.org/namespaces/inkscape"
   width="10.022084mm"
   height="15.582612mm"
   viewBox="0 0 10.022084 15.582612"
   version="1.1"
   id="svg1957"
   inkscape:version="0.92.5 (2060ec1f9f, 2020-04-08)"
   sodipodi:docname="grammo.svg">
  <defs
     id="defs1951" />
  <sodipodi:namedview
     id="base"
     pagecolor="#ffffff"
     bordercolor="#666666"
     borderopacity="1.0"
     inkscape:pageopacity="0.0"
     inkscape:pageshadow="2"
     inkscape:zoom="0.35"
     inkscape:cx="-393.91777"
     inkscape:cy="-201.98112"
     inkscape:document-units="mm"
     inkscape:current-layer="layer1"
     showgrid="false"
     inkscape:window-width="1858"
     inkscape:window-height="1057"
     inkscape:window-x="-8"
     inkscape:window-y="-8"
     inkscape:window-maximized="1" />
  <metadata
     id="metadata1954">
    <rdf:RDF>
      <cc:Work
         rdf:about="">
        <dc:format>image/svg+xml</dc:format>
        <dc:type
           rdf:resource="http://purl.org/dc/dcmitype/StillImage" />
        <dc:title></dc:title>
      </cc:Work>
    </rdf:RDF>
  </metadata>
  <g
     inkscape:label="Ebene 1"
     inkscape:groupmode="layer"
     id="layer1"
     transform="translate(-90.99491,-79.809885)">
    <g
       id="Layer_9"
       data-name="Layer 9"
       transform="matrix(0.26458333,0,0,0.26458333,57.516898,7.4685545)">
      <g
         id="g1243">
        <path
           class="cls-7"
           d="m 139,300.4 c -1,1.4 0,4 1.2,4.7 a 15.6,15.6 0 0 0 5.9,1.8 c 2,0.1 5.9,0.2 7.8,-0.4 1.9,-0.6 3.4,-4.9 2.1,-7.5 a 2.1,2.1 0 0 0 -3.6,0 1.3,1.3 0 0 0 -0.3,0.7 c -0.1,0.3 -0.1,0.3 0,0.2 0.1,-0.1 -0.3,0.3 -0.2,0.3 a 3.8,3.8 0 0 1 -1.6,0.6 17.7,17.7 0 0 1 -4,0.8 18,18 0 0 1 -4,-0.3 l -1.4,-0.4 a 1,1 0 0 1 -0.5,-0.4 l -0.3,-0.2 c -0.3,-0.1 -0.3,-0.1 -0.1,-0.1 a 0.7,0.7 0 0 0 -1,0.2 z"
           id="path1185"
           inkscape:connector-curvature="0"
           style="fill:#3eaf99" />
        <path
           class="cls-3"
           d="m 149.9,312.4 c -0.3,-1.5 -0.7,-3 -1.1,-4.4 -0.4,-1.4 0.9,-1.7 0,-2.2 a 5.9,5.9 0 0 0 -1.9,-0.5 l -5.3,-1 -4.3,-1.5 a 2.3,2.3 0 0 0 -2.6,1.5 6.9,6.9 0 0 0 -0.4,3.2 c 0,1.2 0,3.4 0.7,4.3 h 0.1 c 0.2,0.4 1.6,0.1 1.9,0.2 a 28.1,28.1 0 0 0 4.9,1.6 l 5.4,1.3 a 2.2,2.2 0 0 0 2.6,-2.5 z"
           id="path1187"
           inkscape:connector-curvature="0"
           style="fill:#ffffff" />
        <path
           class="cls-4"
           d="m 160.3,311.7 a 23.3,23.3 0 0 0 -0.4,-3.7 c -0.2,-1.1 0,-2.1 -0.6,-3 -0.6,-0.9 -0.7,-1.4 -1.6,-1.6 a 14.2,14.2 0 0 0 -2.9,0.2 l -3.3,0.9 c -1.1,0.3 -2.4,0.4 -3.2,1.1 -0.8,0.7 -0.1,4.3 0,4.4 0.1,0.1 1.1,4.4 1.1,4.6 0,0.2 0.1,0.5 0.2,0.8 v 0 a 1.7,1.7 0 0 0 1.7,1.2 1.7,1.7 0 0 0 1,-0.3 l 0.8,-0.3 a 42.9,42.9 0 0 1 5.4,-1.9 2.5,2.5 0 0 0 1.8,-2.4 z"
           id="path1189"
           inkscape:connector-curvature="0"
           style="fill:#330800" />
        <path
           class="cls-7"
           d="m 153.1,328.7 a 55.2,55.2 0 0 1 -1.1,-12.3 2.3,2.3 0 0 0 -1.8,-2.3 c -6.3,-1.3 -12.6,-2.9 -18.8,-4.5 -1.9,-0.5 -2.8,0.2 -3.4,3.8 0,0 -0.7,4.1 -0.9,5.4 -0.2,1.3 -0.3,2.6 -0.5,4 a 3.1,3.1 0 0 0 1.6,3.4 c 1.1,0.6 2.6,0.5 3.5,0.7 l 3.7,0.5 a 53.2,53.2 0 0 1 6.9,1.6 67,67 0 0 1 7.6,2.9 c 0.9,0.3 2.9,0.4 3.5,-0.2 0.6,-0.6 -0.1,-2.1 -0.3,-3 z"
           id="path1191"
           inkscape:connector-curvature="0"
           style="fill:#3eaf99" />
        <path
           class="cls-6"
           d="m 164.2,325.4 a 47.2,47.2 0 0 1 -1.8,-5.3 26.8,26.8 0 0 1 -0.7,-2.7 c -0.1,-0.5 -0.1,-1 -0.2,-1.4 a 12.3,12.3 0 0 0 -0.9,-3.4 c -0.5,-0.6 -1.7,-0.4 -2.4,-0.1 -0.7,0.3 -5.3,1.3 -7.3,1.9 a 1.6,1.6 0 0 0 -0.3,1.1 c 0,3.2 0.3,8.5 0.5,9.7 0.2,1.2 0.2,6.3 1.1,6.9 0.9,0.6 2.4,-0.2 3.3,-0.9 l 3.6,-1.6 c 0.2,-0.2 3.9,-1.5 4.6,-2 a 1.7,1.7 0 0 0 0.5,-2.2 z"
           id="path1193"
           inkscape:connector-curvature="0"
           style="fill:#d42b00" />
        <path
           class="cls-6"
           d="m 159.9,293.7 c -1.2,-2 -4.2,-4.7 -6,-6.3 -1.8,-1.6 -7,-4.3 -8,-5.1 -4.3,-3.4 -3,-3.2 -3.2,-6 -0.2,-2.8 -0.3,-3.2 -1.5,-2.7 -1.2,0.5 -5.3,3.5 -10,10.9 -0.9,1.3 -3.4,9.3 -2.3,9.6 1.1,0.3 1.3,-1.4 4.9,-2.4 a 28.5,28.5 0 0 1 5.1,-0.7 25.7,25.7 0 0 1 8.3,0.6 c 5.3,1.1 10.7,4.8 12,10.2 a 8.2,8.2 0 0 1 -0.2,3.8 l -0.6,1.9 a 8.8,8.8 0 0 1 -0.9,2 0.8,0.8 0 0 0 1,1.2 6.6,6.6 0 0 0 1.9,-0.9 5.2,5.2 0 0 0 1.6,-1.7 10.9,10.9 0 0 0 1.2,-4.7 c 0.1,-3.4 -0.4,-4.8 -3.3,-9.7 z"
           id="path1195"
           inkscape:connector-curvature="0"
           style="fill:#d42b00" />
        <path
           class="cls-4"
           d="m 155.7,299.4 c -0.1,-1.1 -1.3,-1.7 -2.2,-2 a 18.4,18.4 0 0 0 -2.5,-0.5 l -2.8,-0.4 a 18.1,18.1 0 0 0 -5.2,0.1 c -1.7,0.2 -4.6,1.7 -4,3.9 0.6,2.2 3.6,2.1 4.7,2.2 1.1,0.1 3.8,0 5.6,0 a 10.2,10.2 0 0 0 4.9,-0.9 2.4,2.4 0 0 0 1.5,-2.4 z"
           id="path1197"
           inkscape:connector-curvature="0"
           style="fill:#330800" />
        <path
           class="cls-3"
           d="m 150.1,298.3 a 4.7,4.7 0 0 0 -3.5,0.1 1,1 0 0 0 0.3,1.8 3.6,3.6 0 0 0 3.2,0 1,1 0 0 0 0,-1.9 z"
           id="path1199"
           inkscape:connector-curvature="0"
           style="fill:#ffffff" />
        <path
           class="cls-4"
           d="m 149,298.9 a 1.7,1.7 0 0 0 -1.2,0.1 0.30413813,0.30413813 0 0 0 0.1,0.6 1.4,1.4 0 0 0 1.1,0 0.4,0.4 0 0 0 0,-0.7 z"
           id="path1201"
           inkscape:connector-curvature="0"
           style="fill:#330800" />
        <path
           class="cls-4"
           d="m 155,296.3 -1.2,-0.5 -1.4,-0.5 a 19.5,19.5 0 0 0 -5.9,-0.7 0.6,0.6 0 0 0 -0.6,0.6 9.5,9.5 0 0 0 0.2,2.9 0.20615528,0.20615528 0 0 0 0.4,0.1 7,7 0 0 0 0.5,-2.5 16.5,16.5 0 0 1 7,1.3 c 0.1,0.3 0.1,0.6 0.2,0.8 0.1,0.2 0.3,0.6 0.4,1 0.1,0.4 0.2,0 0.2,-0.1 a 2.1,2.1 0 0 0 0.4,-1.1 2.7,2.7 0 0 0 -0.2,-1.3 z"
           id="path1203"
           inkscape:connector-curvature="0"
           style="fill:#330800" />
        <path
           class="cls-3"
           d="m 134.3,289.2 c 3.1,0.1 6.2,-0.4 9.3,0.2 a 27.9,27.9 0 0 1 3.9,1 15.2,15.2 0 0 1 3.6,1.8 c 0.2,0 0.4,-0.1 0.3,-0.3 a 6.5,6.5 0 0 0 -3.2,-1.9 31.7,31.7 0 0 0 -4.4,-1.2 25.3,25.3 0 0 0 -9.5,0.3 c -0.1,0 0,0.1 0,0.1 z"
           id="path1205"
           inkscape:connector-curvature="0"
           style="fill:#ffffff" />
        <path
           class="cls-3"
           d="m 136.8,284.5 a 12.9,12.9 0 0 1 2.1,0.5 l 2.3,0.7 a 32.6,32.6 0 0 1 4.4,1.5 34.9,34.9 0 0 1 3.9,1.9 l 1.8,1.2 a 11.3,11.3 0 0 0 1.8,1.2 c 0.1,0.1 0.3,-0.1 0.2,-0.2 a 10.7,10.7 0 0 0 -3.4,-2.5 31.1,31.1 0 0 0 -4.1,-2 36.8,36.8 0 0 0 -4.7,-1.5 21,21 0 0 0 -2.4,-0.6 3.5,3.5 0 0 0 -2,-0.3 0.1,0.1 0 0 0 0.1,0.1 z"
           id="path1207"
           inkscape:connector-curvature="0"
           style="fill:#ffffff" />
        <path
           class="cls-3"
           d="m 140.1,281.4 7.1,4.1 a 24.8,24.8 0 0 1 3.1,1.8 31.9,31.9 0 0 0 3.2,2.3 c 0.2,0 0.3,-0.2 0.2,-0.3 a 16.3,16.3 0 0 0 -2.9,-2.3 l -3.3,-2 -7.3,-3.7 c -0.1,-0.1 -0.2,0 -0.1,0.1 z"
           id="path1209"
           inkscape:connector-curvature="0"
           style="fill:#ffffff" />
        <path
           class="cls-3"
           d="m 130.1,313.4 c 0.3,-0.4 0.8,-1 0.6,-1.4 -0.2,-0.4 -0.1,-0.1 -0.2,0 -0.1,0.1 -0.1,0.4 -0.2,0.5 l -0.3,0.7 c -0.1,0.1 0,0.2 0.1,0.2 z"
           id="path1211"
           inkscape:connector-curvature="0"
           style="fill:#ffffff" />
        <path
           class="cls-3"
           d="m 131.1,315.3 a 0.9,0.9 0 0 0 0.5,-0.8 c 0,-0.2 -0.4,-0.3 -0.4,0 0,0.3 -0.1,0.4 -0.3,0.6 z"
           id="path1213"
           inkscape:connector-curvature="0"
           style="fill:#ffffff" />
        <path
           class="cls-3"
           d="m 132.3,312.7 c 0.1,-0.2 0.3,-0.4 0.3,-0.6 h -0.2 c -0.2,0.1 -0.2,0.4 -0.3,0.6 -0.1,0.2 0.1,0.2 0.2,0.1 z"
           id="path1215"
           inkscape:connector-curvature="0"
           style="fill:#ffffff" />
        <path
           class="cls-3"
           d="m 128.8,316.8 c 0.1,-0.2 0.1,-0.4 0.2,-0.6 0.1,-0.2 0.2,-0.3 0.1,-0.5 H 129 c -0.4,0.2 -0.4,0.9 -0.4,1.2 z"
           id="path1217"
           inkscape:connector-curvature="0"
           style="fill:#ffffff" />
        <path
           class="cls-3"
           d="m 130.9,318.4 a 1.9,1.9 0 0 0 0.2,-0.7 c 0.1,-0.2 -0.3,-0.4 -0.3,-0.1 a 1.9,1.9 0 0 0 -0.1,0.8 c 0,0.1 0.1,0.1 0.2,0 z"
           id="path1219"
           inkscape:connector-curvature="0"
           style="fill:#ffffff" />
        <path
           class="cls-3"
           d="m 132.8,318.6 a 1.4,1.4 0 0 1 0.2,-0.7 c 0,-0.3 -0.3,-0.4 -0.4,-0.1 a 1.7,1.7 0 0 0 -0.1,0.7 c 0,0.2 0.2,0.2 0.3,0.1 z"
           id="path1221"
           inkscape:connector-curvature="0"
           style="fill:#ffffff" />
        <path
           class="cls-3"
           d="m 134.1,314.8 c 0,-0.3 0.2,-0.5 0.4,-0.8 0.2,-0.3 -0.2,-0.4 -0.4,-0.2 a 1.7,1.7 0 0 0 -0.3,1 0.2,0.2 0 1 0 0.3,0 z"
           id="path1223"
           inkscape:connector-curvature="0"
           style="fill:#ffffff" />
        <path
           class="cls-3"
           d="m 128.6,321 c 0,-0.3 0.1,-0.6 0.1,-1 a 0.1,0.1 0 0 0 -0.1,-0.1 h -0.3 a 2.2,2.2 0 0 0 0.1,1.1 c 0,0.1 0.2,0 0.2,-0.1 z"
           id="path1225"
           inkscape:connector-curvature="0"
           style="fill:#ffffff" />
        <path
           class="cls-3"
           d="m 131,321.2 a 0.8,0.8 0 0 0 0.2,-0.4 0.3,0.3 0 0 0 0,-0.4 c -0.2,0 -0.3,0.1 -0.3,0.2 0,0.1 -0.1,0.3 -0.2,0.5 -0.1,0.2 0.2,0.3 0.3,0.1 z"
           id="path1227"
           inkscape:connector-curvature="0"
           style="fill:#ffffff" />
        <path
           class="cls-3"
           d="m 133.5,321.8 a 0.6,0.6 0 0 0 0.1,-0.4 h -0.1 c -0.1,0.2 -0.2,0.3 -0.2,0.5 0,0.2 0.2,0.2 0.2,0 z"
           id="path1229"
           inkscape:connector-curvature="0"
           style="fill:#ffffff" />
        <path
           class="cls-3"
           d="m 135.6,317.9 c 0,-0.2 0.1,-0.3 0.1,-0.5 h -0.1 a 1.7,1.7 0 0 0 -0.2,0.5 c -0.1,0.1 0.1,0.2 0.2,0.1 z"
           id="path1231"
           inkscape:connector-curvature="0"
           style="fill:#ffffff" />
        <path
           class="cls-3"
           d="m 136.8,314.5 c 0.1,-0.3 0.3,-0.5 0.3,-0.8 h -0.2 a 1.1,1.1 0 0 0 -0.3,0.8 c -0.1,0.1 0.1,0.2 0.2,0.1 z"
           id="path1233"
           inkscape:connector-curvature="0"
           style="fill:#ffffff" />
        <path
           class="cls-3"
           d="m 135.6,311.8 v -0.2 c 0,-0.1 0,-0.1 -0.1,-0.1 v 0.2 c -0.1,0.1 0.1,0.2 0.1,0.1 z"
           id="path1235"
           inkscape:connector-curvature="0"
           style="fill:#ffffff" />
        <path
           class="cls-3"
           d="m 130.2,310.8 a 0.6,0.6 0 0 0 0.4,-0.8 h -0.1 a 0.5,0.5 0 0 1 -0.4,0.6 c -0.1,0 0,0.3 0.1,0.2 z"
           id="path1237"
           inkscape:connector-curvature="0"
           style="fill:#ffffff" />
        <path
           class="cls-3"
           d="m 146.3,298 c 0,-0.2 0.1,-0.3 0.1,-0.5 V 297 h -0.1 a 0.8,0.8 0 0 0 -0.1,0.4 v 0.6 c 0,0 0.1,0.1 0.1,0 z"
           id="path1239"
           inkscape:connector-curvature="0"
           style="fill:#ffffff" />
        <path
           class="cls-3"
           d="m 139.4,274.9 a 18.3,18.3 0 0 0 -2.1,2 c -0.4,1 -0.8,2 -1.3,3 a 37.8,37.8 0 0 1 -2.6,4.3 c -0.8,1.3 -1.6,2.6 -2.5,3.8 l -1.5,1.8 a 0.2,0.2 0 0 1 -0.2,0.2 c -0.2,0.8 -0.3,1.4 -0.4,2 l 0.8,-0.5 c 0.7,-0.6 1.2,-1.2 1.8,-1.8 a 40.2,40.2 0 0 0 3,-4.2 32.9,32.9 0 0 0 3,-4.6 46.1,46.1 0 0 0 2.2,-5.1 0.6,0.6 0 0 0 -0.2,-0.9 z"
           id="path1241"
           inkscape:connector-curvature="0"
           style="fill:#ffffff" />
      </g>
    </g>
  </g>
</svg>
