<?xml version="1.0" encoding="UTF-8" standalone="no"?>
<!-- Created with Inkscape (http://www.inkscape.org/) -->

<svg
   xmlns:dc="http://purl.org/dc/elements/1.1/"
   xmlns:cc="http://creativecommons.org/ns#"
   xmlns:rdf="http://www.w3.org/1999/02/22-rdf-syntax-ns#"
   xmlns:svg="http://www.w3.org/2000/svg"
   xmlns="http://www.w3.org/2000/svg"
   xmlns:sodipodi="http://sodipodi.sourceforge.net/DTD/sodipodi-0.dtd"
   xmlns:inkscape="http://www.inkscape.org/namespaces/inkscape"
   width="11.549866mm"
   height="18.367281mm"
   viewBox="0 0 11.549866 18.367281"
   version="1.1"
   id="svg6676"
   inkscape:version="0.92.5 (2060ec1f9f, 2020-04-08)"
   sodipodi:docname="sax.svg">
  <defs
     id="defs6670" />
  <sodipodi:namedview
     id="base"
     pagecolor="#ffffff"
     bordercolor="#666666"
     borderopacity="1.0"
     inkscape:pageopacity="0.0"
     inkscape:pageshadow="2"
     inkscape:zoom="1.979899"
     inkscape:cx="27.436711"
     inkscape:cy="35.048997"
     inkscape:document-units="mm"
     inkscape:current-layer="layer1"
     showgrid="false"
     inkscape:window-width="706"
     inkscape:window-height="403"
     inkscape:window-x="836"
     inkscape:window-y="103"
     inkscape:window-maximized="0" />
  <metadata
     id="metadata6673">
    <rdf:RDF>
      <cc:Work
         rdf:about="">
        <dc:format>image/svg+xml</dc:format>
        <dc:type
           rdf:resource="http://purl.org/dc/dcmitype/StillImage" />
        <dc:title></dc:title>
      </cc:Work>
    </rdf:RDF>
  </metadata>
  <g
     inkscape:label="Ebene 1"
     inkscape:groupmode="layer"
     id="layer1"
     transform="translate(-120.77719,-92.175065)">
    <g
       data-name="Layer 3"
       id="g6895"
       transform="matrix(0.26458333,0,0,0.26458333,43.944463,-1.5902445)">
      <g
         id="g6893">
        <path
           id="path6839"
           d="m 324.4,420.5 h -4.3 l 0.3,-0.3 a 4.6,4.6 0 0 0 2.3,-1.6 8.1,8.1 0 0 0 1.9,-3.4 25.5,25.5 0 0 0 0.9,-8.3 41.3,41.3 0 0 0 -0.8,-7.8 18.7,18.7 0 0 0 -3.3,-6.8 c -0.9,-1.2 -1.8,-2.3 -2.8,-3.4 -1,-1.1 -1.9,-2.3 -3.2,-2.5 a 0.8,0.8 0 0 0 -1,0.4 3.4,3.4 0 0 0 0.2,3.1 v 0.4 a 2.4,2.4 0 0 0 -2.6,-1 c -0.1,0 -0.1,0 -0.1,0.1 a 1.8,1.8 0 0 0 -1.7,0.9 c -0.6,1.1 -0.2,2.7 -0.1,4 0.1,1.3 0.1,2.4 0.1,3.6 0,1.2 0,2.4 -0.1,3.5 -0.1,1.1 -0.1,1.2 -0.2,1.8 a 6.1,6.1 0 0 1 -0.2,1.5 15.9,15.9 0 0 1 -0.6,3 28.9,28.9 0 0 1 -3.2,3.6 8,8 0 0 1 -2.9,1.5 c -1.8,0.8 -6.1,1.1 -6,1.3 0.1,0.2 -1,2.3 -1.1,3.2 a 12.1,12.1 0 0 0 -0.1,1.9 c 0,0.1 0.5,4.6 1.8,4.1 a 2.9,2.9 0 0 0 2,-2.8 c 0,-0.4 -0.2,-0.8 -0.2,-1.1 a 12.4,12.4 0 0 1 -0.4,-1.6 5.9,5.9 0 0 0 3.2,0.6 14.5,14.5 0 0 0 4.6,-0.9 18.5,18.5 0 0 0 3.9,-1.5 c 6.3,-3.9 6.4,-9.3 6.5,-10.8 a 30.9,30.9 0 0 0 0.1,-4.3 35.5,35.5 0 0 0 -0.6,-4.7 28.3,28.3 0 0 1 1.3,5 31.1,31.1 0 0 1 0.4,3.2 l 0.3,3.4 c 0.1,2.4 0.3,4.8 0.2,7.2 0,0.3 -0.1,0.6 -0.1,0.9 v 0 a 4.3,4.3 0 0 0 -0.1,0.5 l -0.3,1.5 a 7.1,7.1 0 0 0 -0.6,1.9 l -0.7,0.8 a 1.9,1.9 0 0 0 -0.3,1.9 2.1,2.1 0 0 0 1.3,1.1 17.2,17.2 0 0 0 3.2,0.2 h 3.1 a 1.7,1.7 0 0 0 1.8,-1.8 1.8,1.8 0 0 0 -1.8,-1.5 z m -5.6,-4.4 z"
           class="cls-3"
           inkscape:connector-curvature="0"
           style="fill:#ffffff" />
        <path
           id="path6841"
           d="m 333.6,370.1 c -1.6,-1.6 -3.2,-3.2 -4.9,-4.6 -1.7,-1.4 -2.3,-1 -2.7,0.4 a 16.8,16.8 0 0 0 -0.7,3.9 c -0.1,2.1 0.2,4.2 0.3,6.3 v 3.2 c -0.1,0.4 -0.1,0.9 -0.2,1.4 a 0.7,0.7 0 0 1 -0.1,0.5 v 0 a 3.1,3.1 0 0 1 -0.7,-0.9 23.3,23.3 0 0 1 -1.7,-2.6 32.5,32.5 0 0 1 -2.3,-5.4 c -0.7,-2 -1,-4 -1.6,-6 a 15.6,15.6 0 0 0 -3,-5.5 27.3,27.3 0 0 0 -2.3,-2.5 2.5,2.5 0 0 0 -3.1,-0.9 4.1,4.1 0 0 0 -1.3,1 l -1.2,0.8 a 9.4,9.4 0 0 1 -2.3,1 1.1,1.1 0 0 0 -1.8,0.5 2.1,2.1 0 0 1 -1.1,1 l -0.9,0.4 h -0.5 l -0.3,0.2 a 0.6,0.6 0 0 0 -0.4,1.1 c 0.6,0.8 2.3,0.4 3.1,0.1 a 3.9,3.9 0 0 0 2.1,-1.9 h 1.6 a 5.4,5.4 0 0 0 2.4,-0.9 3.9,3.9 0 0 0 1,-0.8 l 0.4,-0.3 h 0.2 l 0.2,0.2 0.4,0.5 0.9,1.1 a 17.3,17.3 0 0 1 2.7,4.3 47.5,47.5 0 0 1 1.4,5.4 34.3,34.3 0 0 0 4.4,10.2 c 1,1.6 2.3,3.7 4.5,3.2 2.2,-0.5 3.9,-7.9 4.5,-9.3 a 4.7,4.7 0 0 1 2.3,-2.5 1.6,1.6 0 0 0 0.7,-2.6 z m -8.4,11.5 c -0.1,0 0,0 0,-0.1 z m 0.3,-0.2 c 0.1,0 0.1,0 0.1,0.1 z"
           class="cls-4"
           inkscape:connector-curvature="0"
           style="fill:#330800" />
        <path
           id="path6843"
           d="m 320.7,387.3 a 12.1,12.1 0 0 0 -3,-3.4 3.5,3.5 0 0 1 -1.3,-1.1 c -0.3,-0.4 -0.6,-1.1 -1,-1.6 l -0.8,-1.1 a 34.3,34.3 0 0 0 -1.9,-4.4 21.5,21.5 0 0 0 -3.4,-5.4 18,18 0 0 0 -4.7,-3.5 9.6,9.6 0 0 0 -2.9,-0.8 c -0.9,-0.2 -2.3,-0.3 -3,0.5 -0.7,0.8 -1.3,5.6 -1.1,7.4 0.2,1.8 0.9,6.4 1.9,8 1,1.6 2.4,2.8 3.6,4.2 l 2,2.4 0.9,1.3 0.2,0.4 v 0.2 c 0,0.1 0.1,0.4 0.1,0.3 a 10.1,10.1 0 0 1 -0.4,2.3 7.4,7.4 0 0 0 0,3.3 1.8,1.8 0 0 0 1.2,1.2 9,9 0 0 0 4.3,-0.3 c 1.3,-0.5 2.6,-0.9 3.8,-1.5 a 6.9,6.9 0 0 0 2.9,-2.7 5.7,5.7 0 0 0 0.5,-3.1 7.7,7.7 0 0 0 1.7,1.9 0.7,0.7 0 0 0 1,-0.3 c 0.7,-1.3 0,-3 -0.6,-4.2 z"
           class="cls-6"
           inkscape:connector-curvature="0"
           style="fill:#d42b00" />
        <path
           id="path6845"
           d="m 298.7,368.1 c -0.8,0.4 -1,1.8 -1.1,2.6 a 8.6,8.6 0 0 0 0,3.2 10.2,10.2 0 0 0 2.9,5.4 c 3.5,3.4 9.4,3.2 13.9,2 a 12,12 0 0 0 3.7,-1.5 c 1.3,-0.8 2.8,-2 3.2,-3.5 a 2,2 0 0 0 -1.2,-2.3 1.9,1.9 0 0 0 -2.4,0.8 l -0.3,0.3 a 1.2,1.2 0 0 1 -0.5,0.5 c 0,0.1 -0.5,0.5 -0.2,0.3 l -0.6,0.4 -1.3,0.7 h -0.3 l -0.8,0.3 -2.8,0.6 h -0.7 c 0.3,-0.1 0,0 -0.1,0 h -2 a 10.2,10.2 0 0 1 -2.6,-0.2 5.1,5.1 0 0 1 -2.4,-1 l -0.3,-0.2 -0.5,-0.4 -0.4,-0.4 -0.2,-0.2 c 0,-0.1 0,-0.1 -0.1,-0.1 v 0 l -0.6,-1 -0.5,-1 a 21.3,21.3 0 0 1 -0.7,-2.7 c -0.1,-0.8 0.2,-2 -0.3,-2.7 a 0.8,0.8 0 0 0 -0.8,-0.2 z"
           class="cls-6"
           inkscape:connector-curvature="0"
           style="fill:#d42b00" />
        <path
           id="path6847"
           d="m 301.7,363 c -0.5,-1.9 -2.4,-4.2 -4.6,-4.1 h -1.3 a 2.4,2.4 0 0 0 -1.7,2.3 c -0.4,-0.1 -0.7,0.5 -0.7,0.8 a 4,4 0 0 0 0.6,2.6 5.8,5.8 0 0 0 4.8,3.5 c 2.7,0.1 3.6,-2.9 2.9,-5.1 z"
           class="cls-5"
           inkscape:connector-curvature="0"
           style="fill:#ffdc9c" />
        <path
           id="path6849"
           d="m 300.8,357.2 -0.7,0.8 H 300 c -2.9,0.9 -2.3,-2.3 -3.1,-2.9 a 4.5,4.5 0 0 0 -5.5,0.5 c -1.1,1.6 -0.5,3.9 0.7,5.2 1.2,1.3 1.4,0.9 1.2,1.6 a 2.9,2.9 0 0 1 -1.9,1.4 c -0.3,0.1 -1.1,1.1 -1,1.3 0.1,0.2 1.9,0.6 2.7,0.4 a 16.2,16.2 0 0 0 3.5,-1.7 28,28 0 0 0 3.5,-2.5 18.9,18.9 0 0 0 2.5,-2.3 c 1.2,-1.2 -0.7,-3 -1.8,-1.8 z"
           class="cls-4"
           inkscape:connector-curvature="0"
           style="fill:#330800" />
        <path
           id="path6851"
           d="m 318.2,374.3 c 0.4,-0.6 1.9,-2.7 3.4,-0.7 1.5,2 0.8,1.9 -0.2,3.2 -1,1.3 -3.6,-2.1 -3.2,-2.5 z"
           class="cls-5"
           inkscape:connector-curvature="0"
           style="fill:#ffdc9c" />
        <path
           id="path6853"
           d="m 316.5,371 a 3.3,3.3 0 0 0 1.4,0 l 1.6,-0.4 a 0.3,0.3 0 0 0 0,-0.5 c -0.5,-0.2 -0.9,0.1 -1.4,0.2 a 4.3,4.3 0 0 1 -1.6,0.5 c -0.1,0 -0.1,0.2 0,0.2 z"
           class="cls-5"
           inkscape:connector-curvature="0"
           style="fill:#ffdc9c" />
        <path
           id="path6855"
           d="m 316,369.3 h 1.6 a 2.3,2.3 0 0 0 1.2,-0.2 0.2,0.2 0 0 0 0,-0.4 c -0.4,-0.2 -0.9,0 -1.3,0 L 316,369 c -0.2,0.1 -0.1,0.2 0,0.2 z"
           class="cls-5"
           inkscape:connector-curvature="0"
           style="fill:#ffdc9c" />
        <path
           id="path6857"
           d="m 315.3,368 a 1.7,1.7 0 0 0 1.4,0.2 l 0.9,-0.2 a 1.5,1.5 0 0 0 0.8,-0.4 0.4,0.4 0 0 0 -0.1,-0.3 1.3,1.3 0 0 0 -1.2,0.2 3.2,3.2 0 0 1 -1.7,0.3 c -0.1,0 -0.2,0.1 -0.1,0.2 z"
           class="cls-5"
           inkscape:connector-curvature="0"
           style="fill:#ffdc9c" />
        <path
           id="path6859"
           d="m 316.9,373 a 3.7,3.7 0 0 0 1.5,-0.3 c 0.5,-0.1 1.1,-0.1 1.4,-0.4 a 0.2,0.2 0 0 0 0,-0.3 c -0.3,-0.4 -1,-0.1 -1.4,0.1 a 2.2,2.2 0 0 0 -1.5,0.8 c -0.1,0 0,0 0,0.1 z"
           class="cls-5"
           inkscape:connector-curvature="0"
           style="fill:#ffdc9c" />
        <path
           id="path6861"
           d="m 298.2,363.7 a 0.8,0.8 0 0 0 1.1,0.1 1.4,1.4 0 0 0 0.3,-1.6 h -0.2 c -0.1,0.4 0,0.7 -0.2,1 -0.2,0.3 -0.5,0.7 -0.8,0.3 -0.3,-0.4 -0.2,0.1 -0.2,0.2 z"
           inkscape:connector-curvature="0" />
        <path
           id="path6863"
           d="M 300.9,363.9 Z"
           inkscape:connector-curvature="0" />
        <path
           id="path6865"
           d="m 301,363.9 a 4.4,4.4 0 0 0 1.2,-1.8 c 0,-0.1 0,-0.1 -0.1,-0.1 a 11.3,11.3 0 0 1 -1.2,1.8 c -0.1,0.1 0,0.2 0.1,0.1 z"
           inkscape:connector-curvature="0" />
        <path
           id="path6867"
           d="m 300.9,366.5 -0.2,-0.2 c -0.2,-0.1 -0.3,0.2 -0.2,0.3 a 2.4,2.4 0 0 0 1.5,0.9 0.3,0.3 0 0 0 0.4,-0.4 2.3,2.3 0 0 0 -1.2,-1 c -0.3,0 -0.5,0.3 -0.4,0.5 0.1,0.2 1,1.2 1.3,0.6 0.3,-0.6 -0.5,-1.2 -0.8,-1.4 -0.3,-0.2 -0.6,0.2 -0.5,0.5 0.1,0.3 1.2,1.3 1.5,0.6 0.3,-0.7 0,-0.6 -0.2,-0.8 a 2,2 0 0 0 -0.9,-0.5 0.5,0.5 0 0 0 -0.4,0.6 c 0.3,0.3 0.8,1.1 1.3,0.8 0.5,-0.3 0,-1.1 -0.3,-1.4 -0.3,-0.3 -0.8,0.1 -0.6,0.4 l 0.6,0.9 c 0.3,0.3 0.7,0 0.7,-0.4 a 3.6,3.6 0 0 0 -0.4,-0.9 c -0.2,-0.4 -0.7,-0.1 -0.6,0.3 a 1.1,1.1 0 0 0 0.3,0.8 0.4,0.4 0 0 0 0.7,-0.1 2.7,2.7 0 0 0 -0.3,-1.2 0.4,0.4 0 0 0 -0.7,0.1 c -0.1,0.6 0,1.6 0.7,1.8 l 0.3,-0.2 c -0.1,-0.5 -0.4,-0.9 -0.3,-1.4 h -0.7 a 1.2,1.2 0 0 1 0.2,0.8 l 0.7,-0.2 a 1.9,1.9 0 0 1 -0.2,-0.7 l -0.7,0.3 0.3,0.7 0.6,-0.3 a 3.5,3.5 0 0 1 -0.5,-0.8 l -0.6,0.5 0.2,0.3 h 0.1 l 0.2,-0.2 h 0.1 l -0.2,-0.2 -0.2,-0.3 -0.3,0.6 h 0.3 v 0.2 c 0,0.1 0.1,0.1 0,0 l 0.3,-0.3 h -0.2 l -0.3,-0.4 -0.4,0.5 0.3,0.3 c 0,0.1 0.1,0.1 0.1,0.2 0,0.1 0.1,0.2 0.1,0 l 0.2,-0.2 h 0.2 a 0.7,0.7 0 0 1 -0.5,-0.4 l -0.4,0.5 a 1.2,1.2 0 0 1 0.8,0.6 l 0.4,-0.5 a 3.9,3.9 0 0 1 -1.5,-0.6 0.4,0.4 0 0 1 -0.1,0.3 h 0.2 a 0.1,0.1 0 0 0 0.1,-0.1 z"
           inkscape:connector-curvature="0" />
        <path
           id="path6869"
           d="m 300.5,377.2 c 3,5.4 9.9,5.9 15.2,3.8 0.4,-0.1 0.2,-0.8 -0.2,-0.7 a 14.5,14.5 0 0 1 -8.7,1 10,10 0 0 1 -6.2,-4.1 z"
           inkscape:connector-curvature="0" />
        <path
           id="path6871"
           d="m 307.1,379.1 0.3,-0.9 a 0.20615528,0.20615528 0 0 0 -0.4,-0.1 2.9,2.9 0 0 0 -0.2,0.9 c 0,0.2 0.2,0.2 0.3,0.1 z"
           inkscape:connector-curvature="0" />
        <path
           id="path6873"
           d="m 308.1,379 v -1 a 0.20615528,0.20615528 0 0 0 -0.4,0.1 c 0,0.3 0.1,0.7 0.1,1 0,0.3 0.3,0.1 0.3,-0.1 z"
           inkscape:connector-curvature="0" />
        <path
           id="path6875"
           d="m 309.1,378.8 c 0,-0.2 -0.1,-0.4 -0.1,-0.6 0,-0.2 -0.1,-0.4 -0.2,-0.5 h -0.2 c -0.2,0.1 -0.1,0.3 -0.1,0.6 a 1.3,1.3 0 0 0 0.3,0.7 c 0.1,0.1 0.4,0 0.3,-0.2 z"
           inkscape:connector-curvature="0" />
        <path
           id="path6877"
           d="m 322.2,421.8 a 2.8,2.8 0 0 1 0.1,-0.9 c 0,-0.5 -0.6,-0.5 -0.6,-0.1 a 4.3,4.3 0 0 0 0.2,1.1 c 0,0.1 0.2,0.1 0.3,-0.1 z"
           inkscape:connector-curvature="0" />
        <path
           id="path6879"
           d="m 323.1,421.9 a 6.6,6.6 0 0 0 -0.1,-1.4 c -0.1,-0.3 -0.6,-0.1 -0.5,0.2 a 2.7,2.7 0 0 0 0.3,1.2 c 0.1,0.2 0.3,0.2 0.3,0 z"
           inkscape:connector-curvature="0" />
        <path
           id="path6881"
           d="m 297.7,418.9 h 0.9 c 0.3,0 0.6,0.1 0.8,-0.1 v -0.2 c -0.2,-0.2 -0.4,-0.1 -0.7,-0.1 h -1 c -0.1,0.1 -0.2,0.3 0,0.3 z"
           inkscape:connector-curvature="0" />
        <path
           id="path6883"
           d="m 297.8,419.8 h 1.1 a 0.3,0.3 0 0 0 -0.1,-0.5 l -1,0.3 c -0.1,0.1 -0.1,0.2 0,0.2 z"
           inkscape:connector-curvature="0" />
        <path
           id="path6885"
           d="m 310.8,412.2 c -0.3,-1.3 -0.6,-2.6 -0.8,-4 -0.2,-1.4 0,-2.6 -0.1,-4 h -0.2 a 11.9,11.9 0 0 0 -0.1,4.2 12.5,12.5 0 0 0 1.1,3.9 c 0.1,0.1 0.1,0 0.1,-0.1 z"
           inkscape:connector-curvature="0" />
        <path
           id="path6887"
           d="m 322,410.2 a 22,22 0 0 1 -2.1,-3.2 34.1,34.1 0 0 0 -1.7,-3.3 c 0,-0.1 -0.1,0 -0.1,0.1 a 11.9,11.9 0 0 0 1.5,3.5 9.6,9.6 0 0 0 2.4,3 z"
           inkscape:connector-curvature="0" />
        <path
           id="path6889"
           d="m 323.3,412.6 a 1.6,1.6 0 0 0 1.1,-0.5 c 0.3,-0.3 0.6,-0.8 0.4,-1.2 h -0.2 a 3.6,3.6 0 0 1 -0.4,0.9 2.4,2.4 0 0 1 -0.9,0.6 c -0.2,0 -0.1,0.3 0,0.2 z"
           inkscape:connector-curvature="0" />
        <path
           id="path6891"
           d="m 334,371.6 c 0,-0.2 0.1,-0.4 0,-0.6 a 10.4,10.4 0 0 1 -3.2,-1.5 11.7,11.7 0 0 1 -3.4,-4.7 h -0.3 a 11.8,11.8 0 0 0 3,4.9 6.9,6.9 0 0 0 2.9,1.6 z"
           class="cls-5"
           inkscape:connector-curvature="0"
           style="fill:#ffdc9c" />
      </g>
    </g>
  </g>
</svg>
