<?xml version="1.0" encoding="UTF-8" standalone="no"?>
<!-- Created with Inkscape (http://www.inkscape.org/) -->

<svg
   xmlns:dc="http://purl.org/dc/elements/1.1/"
   xmlns:cc="http://creativecommons.org/ns#"
   xmlns:rdf="http://www.w3.org/1999/02/22-rdf-syntax-ns#"
   xmlns:svg="http://www.w3.org/2000/svg"
   xmlns="http://www.w3.org/2000/svg"
   xmlns:sodipodi="http://sodipodi.sourceforge.net/DTD/sodipodi-0.dtd"
   xmlns:inkscape="http://www.inkscape.org/namespaces/inkscape"
   width="8.8447943mm"
   height="19.473333mm"
   viewBox="0 0 8.8447943 19.473333"
   version="1.1"
   id="svg7076"
   inkscape:version="0.92.5 (2060ec1f9f, 2020-04-08)"
   sodipodi:docname="trumpet.svg">
  <defs
     id="defs7070" />
  <sodipodi:namedview
     id="base"
     pagecolor="#ffffff"
     bordercolor="#666666"
     borderopacity="1.0"
     inkscape:pageopacity="0.0"
     inkscape:pageshadow="2"
     inkscape:zoom="0.35"
     inkscape:cx="-390.42828"
     inkscape:cy="-254.62857"
     inkscape:document-units="mm"
     inkscape:current-layer="layer1"
     showgrid="false"
     inkscape:window-width="1858"
     inkscape:window-height="1057"
     inkscape:window-x="-8"
     inkscape:window-y="-8"
     inkscape:window-maximized="1" />
  <metadata
     id="metadata7073">
    <rdf:RDF>
      <cc:Work
         rdf:about="">
        <dc:format>image/svg+xml</dc:format>
        <dc:type
           rdf:resource="http://purl.org/dc/dcmitype/StillImage" />
        <dc:title></dc:title>
      </cc:Work>
    </rdf:RDF>
  </metadata>
  <g
     inkscape:label="Ebene 1"
     inkscape:groupmode="layer"
     id="layer1"
     transform="translate(-90.07165,-61.989524)">
    <g
       data-name="Layer 6"
       id="g7038"
       transform="matrix(0.26458333,0,0,0.26458333,-9.6696505,-31.143808)">
      <g
         id="g7036">
        <g
           id="g7002">
          <path
             id="path6996"
             d="m 389.4,406.6 c -0.1,-0.9 -0.3,-4 -0.3,-6.2 0,-2.2 -0.1,-0.9 -0.1,-1.4 0,-0.5 -1.1,-0.7 -3.1,-2.9 -0.6,-0.6 -1.6,-2.1 -1.8,-1.4 a 20.1,20.1 0 0 0 -0.3,5.5 c 0.2,1 0.5,2.1 0.8,3.1 0.3,1 1,3.5 2.9,5.3 1.9,1.8 2.8,2.4 2.5,0.9 z"
             class="cls-6"
             inkscape:connector-curvature="0"
             style="fill:#d42b00" />
          <path
             id="path6998"
             d="m 407.7,409.4 h -0.6 a 4.1,4.1 0 0 0 -2.2,-0.4 1,1 0 0 0 -1.2,1.1 10.7,10.7 0 0 0 0.9,3.2 0.9,0.9 0 0 0 1.6,0.3 l 0.3,0.8 v 0.5 c 0,0.7 0.1,1.4 0.1,2 a 4.6,4.6 0 0 0 0.5,2 c 0.2,0.2 0.6,0.4 0.8,0.1 a 3.2,3.2 0 0 0 0.6,-1.8 l 0.3,-2.2 c 0.1,-1.3 0.2,-2.7 0.4,-4.1 a 1.4,1.4 0 0 0 -1.5,-1.5 z"
             class="cls-6"
             inkscape:connector-curvature="0"
             style="fill:#d42b00" />
          <path
             id="path7000"
             d="m 405.5,421.1 -0.6,-0.4 0.8,-0.4 a 1.8,1.8 0 0 0 0.2,-2.1 22.3,22.3 0 0 1 -3.2,-10.9 17.2,17.2 0 0 1 0.6,-5.6 13,13 0 0 1 0.3,-1.3 7.6,7.6 0 0 1 0.8,-1.1 8.5,8.5 0 0 0 1.7,-2.9 12.1,12.1 0 0 0 0.7,-3.4 6.7,6.7 0 0 0 -0.9,-3.6 1.7,1.7 0 0 0 -1.9,-0.7 1.9,1.9 0 0 0 -1.1,0.9 v 0 l -0.5,-0.2 a 2,2 0 0 0 -1.3,-1.2 1.7,1.7 0 0 0 -1.8,0.6 h -1.1 a 2,2 0 0 0 -1.7,-0.9 1.8,1.8 0 0 0 -1.2,-1.3 h -1.1 a 1.4,1.4 0 0 0 -1,-0.7 h -1.1 a 1.8,1.8 0 0 0 -1.2,-0.5 1.6,1.6 0 0 0 -1.7,-1.5 1.5,1.5 0 0 0 -1.4,0.9 c 0.1,-0.3 0.1,-0.6 0.3,-0.8 0.2,-0.2 -0.5,-1.2 -1,-0.8 l -0.3,0.3 a 0.5,0.5 0 0 0 -0.7,0 4.5,4.5 0 0 0 -1.2,2 7.2,7.2 0 0 0 -0.7,2.5 8.7,8.7 0 0 0 0.5,4.8 7.5,7.5 0 0 0 2.6,3.5 7.6,7.6 0 0 0 1.9,1.2 l 0.5,0.2 c -0.1,0.2 0,0.5 0,0.6 a 45.8,45.8 0 0 0 0.9,11.1 c 0.8,3.4 2.8,6.2 5.1,8.8 2.3,2.6 2.3,2.9 4,3.2 l -0.6,0.6 a 1.4,1.4 0 0 0 -0.1,1.1 l -1.6,0.3 -1.2,0.3 a 2.8,2.8 0 0 0 -1.2,0.4 0.6,0.6 0 0 0 0,1.2 5,5 0 0 0 1.3,0.3 h 1.3 l 2.8,-0.2 a 24.6,24.6 0 0 0 5.1,-1.5 1.4,1.4 0 0 0 0.6,-2.3 z"
             class="cls-6"
             inkscape:connector-curvature="0"
             style="fill:#d42b00" />
        </g>
        <path
           id="path7004"
           d="m 400.7,368.5 c -0.2,-1 0,0.2 -0.8,-0.1 -0.8,-0.3 -2.7,-2.4 -3.5,-2.8 -0.8,-0.4 -3.3,-2.5 -4.8,-3.4 -1.5,-0.9 -4.6,-3.3 -7.8,-5.6 a 28.3,28.3 0 0 1 -2.8,-2 c -0.5,-0.5 -1.4,-1 -1.5,-1.3 -0.1,-0.3 -0.4,-1.3 -0.7,-1.3 -0.3,0 -0.6,0.4 -0.7,0.7 v 0.2 l -1,2.2 c -0.1,0.4 -0.3,1.1 0.2,1 l 1.5,-0.5 c 0.1,0.2 2,1.1 4.6,2.8 l 15.5,10 c 0.9,0.4 0.6,1.3 1.6,0.8 a 1.1,1.1 0 0 0 0.2,-0.7 z"
           class="cls-5"
           inkscape:connector-curvature="0"
           style="fill:#ffdc9c" />
        <path
           id="path7006"
           d="m 383.1,357.1 a 3.7,3.7 0 0 0 -2.4,0.8 4.5,4.5 0 0 0 -1.6,2 3.7,3.7 0 0 0 1.4,4.2 23.1,23.1 0 0 0 4.2,2.7 44,44 0 0 0 5,2.1 3.9,3.9 0 0 0 2.6,0.2 4.2,4.2 0 0 0 1.8,-1.1 2.7,2.7 0 0 0 0.9,-2.2 c -0.2,-0.9 -1.1,-0.7 -1.6,-0.2 a 3.8,3.8 0 0 1 -1.3,1.5 c -0.7,0.4 -1.4,0 -2.1,-0.2 a 22.6,22.6 0 0 1 -4.8,-2.1 l -2.5,-1.5 a 4.6,4.6 0 0 1 -1.6,-1.5 c -1,-1.8 1.8,-2.7 2.5,-3.8 a 0.6,0.6 0 0 0 -0.5,-0.9 z"
           class="cls-5"
           inkscape:connector-curvature="0"
           style="fill:#ffdc9c" />
        <g
           id="g7012">
          <path
             id="path7008"
             d="M 387.6,369.6 Z"
             class="cls-3"
             inkscape:connector-curvature="0"
             style="fill:#ffffff" />
          <path
             id="path7010"
             d="m 407.9,379.7 a 11.3,11.3 0 0 0 -1.2,-4.7 l -1.4,-1.8 -0.5,-0.6 a 0.3,0.3 0 0 1 -0.1,-0.2 v 0 a 1.6,1.6 0 0 0 -1.9,-1.9 l -3.5,1.4 h -0.4 l -1.8,0.3 -1.6,0.6 a 17.7,17.7 0 0 0 -3.1,1.5 h -1.8 l -0.3,-0.2 H 390 c -3.9,-1.8 -1.9,-6.3 -1.5,-7.3 v 0 l 0.2,-0.3 0.3,-0.6 0.4,-0.7 a 6.1812641e12,6.1812641e12 0 0 1 0.2,-0.6 v 0 a 0.8,0.8 0 0 0 -1,-1.2 h -0.7 l -0.8,0.5 a 4.9,4.9 0 0 0 -1.3,1.2 10.4,10.4 0 0 0 -1.7,3.3 11.4,11.4 0 0 0 0.4,7.3 8.2,8.2 0 0 0 3,3.4 l -0.3,0.3 a 10.9,10.9 0 0 0 -1.9,3.3 2.8,2.8 0 0 0 0.2,2.2 3,3 0 0 0 1.9,1.4 l 8.3,2.9 9.4,3.2 a 1.8,1.8 0 0 0 2.1,-1.2 44.4,44.4 0 0 0 0.7,-11.5 z m -3.3,-7.4 z"
             class="cls-3"
             inkscape:connector-curvature="0"
             style="fill:#ffffff" />
        </g>
        <path
           id="path7014"
           d="m 405,363.8 a 1.2,1.2 0 0 0 -0.8,-0.6 c -1.1,-0.2 -2.1,0.5 -3.2,0.8 a 19.2,19.2 0 0 0 -3.2,0.9 c -0.3,0.1 0.8,1.4 0.9,1.5 0.1,0.1 -0.2,0.1 -0.2,0.2 a 2.4,2.4 0 0 0 -0.6,0.8 2.9,2.9 0 0 0 -0.5,2 3.4,3.4 0 0 0 2.9,3.2 5.7,5.7 0 0 0 6.7,-5.2 3.7,3.7 0 0 0 -2,-3.6 z"
           class="cls-4"
           inkscape:connector-curvature="0"
           style="fill:#330800" />
        <path
           id="path7016"
           d="m 407.8,360 c -1.2,-0.5 -4,0 -4.5,1.5 l -3.3,-1.8 a 0.80622577,0.80622577 0 1 0 -0.8,1.4 l 3.7,3.2 c 1.2,1.1 2.3,2.4 3.5,3.6 a 1.8,1.8 0 0 0 2.4,0 10.8,10.8 0 0 0 1.4,-2.1 c 0.6,-2.9 -0.1,-5 -2.4,-5.8 z"
           class="cls-7"
           inkscape:connector-curvature="0"
           style="fill:#3eaf99" />
        <path
           id="path7018"
           d="m 387.6,363.2 c 0,-0.9 0.3,-3.3 1.2,-3.2 0.9,0.1 2.5,0.6 2.3,1.6 -0.2,1 -0.9,2.5 -1.5,2.4 -0.6,-0.1 -2,-0.4 -2,-0.8 z"
           class="cls-4"
           inkscape:connector-curvature="0"
           style="fill:#330800" />
        <circle
           id="circle7020"
           r="0.60000002"
           cy="362.39999"
           cx="392.29999"
           class="cls-5"
           style="fill:#ffdc9c" />
        <path
           id="path7022"
           d="m 394.2,363.3 a 0.6,0.6 0 0 1 -0.6,0.6 0.6,0.6 0 0 1 0,-1.2 0.6,0.6 0 0 1 0.6,0.6 z"
           class="cls-5"
           inkscape:connector-curvature="0"
           style="fill:#ffdc9c" />
        <circle
           id="circle7024"
           r="0.60000002"
           cy="364.20001"
           cx="395"
           class="cls-5"
           style="fill:#ffdc9c" />
        <path
           id="path7026"
           d="m 402.2,368.8 a 1.3,1.3 0 1 1 -1.3,-1.3 1.3,1.3 0 0 1 1.3,1.3 z"
           class="cls-6"
           inkscape:connector-curvature="0"
           style="fill:#d42b00" />
        <path
           id="path7028"
           d="m 388.5,379.1 0.7,0.7 a 2.7,2.7 0 0 0 0.8,0.7 6.9,6.9 0 0 0 1.9,1 10,10 0 0 0 4.5,0.6 24.7,24.7 0 0 0 4.7,-1.1 c 1.2,-0.5 3.3,-1 3.9,-2.4 a 1.1,1.1 0 0 0 -1.7,-1.2 l -1.3,1 -1.9,0.7 a 16,16 0 0 1 -4.3,1.1 9.7,9.7 0 0 1 -3.8,-0.4 7.5,7.5 0 0 1 -1.8,-0.7 c -0.6,-0.3 -1,-0.6 -1.6,-0.5 -0.6,0.1 -0.4,0.4 -0.1,0.5 z"
           class="cls-5"
           inkscape:connector-curvature="0"
           style="fill:#ffdc9c" />
        <path
           id="path7030"
           d="m 401.5,365 a 0.8,0.8 0 0 0 -0.2,1.1 0.7,0.7 0 0 0 0.9,0.2 c 0.1,-0.1 0,-0.4 -0.2,-0.3 -0.2,0.1 -0.7,-0.1 -0.6,-0.4 a 0.8,0.8 0 0 1 0.2,-0.5 0.1,0.1 0 0 0 -0.1,-0.1 z"
           class="cls-3"
           inkscape:connector-curvature="0"
           style="fill:#ffffff" />
        <path
           id="path7032"
           d="m 400.4,425.5 a 24.6,24.6 0 0 0 5.1,-1.5 1.5,1.5 0 0 0 1,-1.2 50.3,50.3 0 0 1 -6.3,1.9 12.4,12.4 0 0 1 -3.3,0.4 h -2.2 l 0.3,0.2 a 5,5 0 0 0 1.3,0.3 h 1.3 z"
           class="cls-4"
           inkscape:connector-curvature="0"
           style="fill:#330800" />
        <path
           id="path7034"
           d="m 408.8,415.1 c 0.1,-1.3 0.2,-2.7 0.4,-4.1 a 1.2,1.2 0 0 0 -0.7,-1.4 17.6,17.6 0 0 0 -0.6,3.9 19.5,19.5 0 0 0 -0.2,2.5 5,5 0 0 0 0,2.7 0.5,0.5 0 0 0 0.2,0.4 v 0 a 3.2,3.2 0 0 0 0.6,-1.8 z"
           class="cls-4"
           inkscape:connector-curvature="0"
           style="fill:#330800" />
      </g>
    </g>
  </g>
</svg>
