<?xml version="1.0" encoding="UTF-8" standalone="no"?>
<!DOCTYPE svg PUBLIC "-//W3C//DTD SVG 1.1//EN" "http://www.w3.org/Graphics/SVG/1.1/DTD/svg11.dtd">
<svg width="100%" height="100%" viewBox="0 0 186 42" version="1.1" xmlns="http://www.w3.org/2000/svg" xmlns:xlink="http://www.w3.org/1999/xlink" xml:space="preserve" xmlns:serif="http://www.serif.com/" style="fill-rule:evenodd;clip-rule:evenodd;stroke-linejoin:round;stroke-miterlimit:2;">
    <g transform="matrix(1,0,0,1,-163.499,-235.519)">
        <g transform="matrix(1,0,0,1,163,235.238)">
            <path d="M2.922,33.824C0.892,34.696 -0.047,37.048 0.824,39.078C1.696,41.108 4.048,42.047 6.078,41.176L2.922,33.824ZM180.647,11.408C182.805,11.879 184.937,10.511 185.408,8.353C185.879,6.195 184.511,4.063 182.353,3.592L180.647,11.408ZM4.5,37.5C6.078,41.176 6.078,41.176 6.078,41.176C6.078,41.175 6.079,41.175 6.08,41.175C6.082,41.174 6.086,41.172 6.092,41.17C6.103,41.165 6.12,41.157 6.144,41.147C6.192,41.127 6.265,41.096 6.362,41.055C6.558,40.972 6.852,40.849 7.241,40.687C8.02,40.364 9.177,39.89 10.678,39.289C13.681,38.089 18.06,36.387 23.541,34.391C34.506,30.398 49.859,25.233 67.406,20.552C102.669,11.145 146.132,3.873 180.647,11.408L182.353,3.592C145.868,-4.373 100.831,3.355 65.344,12.823C47.516,17.579 31.931,22.821 20.803,26.874C15.237,28.902 10.78,30.633 7.709,31.861C6.173,32.475 4.983,32.963 4.174,33.298C3.77,33.466 3.46,33.596 3.25,33.685C3.145,33.729 3.065,33.763 3.01,33.787C2.983,33.798 2.962,33.807 2.947,33.814L2.925,33.823C2.923,33.824 2.922,33.824 4.5,37.5Z" style="fill:rgb(61,176,153);fill-rule:nonzero;"/>
        </g>
    </g>
</svg>
